<svg xmlns="http://www.w3.org/2000/svg" viewBox="0 0 490.64 168.08"><defs><style>.cls-1,.cls-2{fill:#fff;}.cls-2{fill-rule:evenodd;}</style></defs><g id="图层_2" data-name="图层 2"><g id="图层_1-2" data-name="图层 1"><path class="cls-1" d="M425.06,135.66a5.73,5.73,0,0,0-.55-2.64,3.17,3.17,0,0,0-1.85-1.55,3.94,3.94,0,0,0-.91-.2,9.74,9.74,0,0,0-1.34-.07h-2.35v9h2.72a4.8,4.8,0,0,0,1.91-.34,3.65,3.65,0,0,0,1.33-.94,3.77,3.77,0,0,0,.79-1.43,6,6,0,0,0,.25-1.79m4.19,18.69a.71.71,0,0,1-.05.29c0,.08-.1.14-.21.2a1.37,1.37,0,0,1-.45.12,5.1,5.1,0,0,1-.77,0,4.16,4.16,0,0,1-.69,0,1.15,1.15,0,0,1-.43-.13.63.63,0,0,1-.25-.26,1.59,1.59,0,0,1-.16-.41l-1.92-6.27c-.23-.71-.47-1.36-.71-2a6.38,6.38,0,0,0-.87-1.55,3.64,3.64,0,0,0-1.18-1,3.44,3.44,0,0,0-1.63-.36h-1.87v11.33a.59.59,0,0,1-.07.29.52.52,0,0,1-.22.19,1.73,1.73,0,0,1-.43.12,3.77,3.77,0,0,1-1.34,0,1.73,1.73,0,0,1-.43-.12.39.39,0,0,1-.22-.19.59.59,0,0,1-.07-.29V129.72a1.55,1.55,0,0,1,.33-1.12,1,1,0,0,1,.7-.32h4.46c.53,0,1,0,1.32.05l.94.12a6.89,6.89,0,0,1,2.15.84,5.3,5.3,0,0,1,1.56,1.46,6.48,6.48,0,0,1,.95,2,9.1,9.1,0,0,1,.32,2.52,8.74,8.74,0,0,1-.29,2.39,6.55,6.55,0,0,1-.81,1.88,6.15,6.15,0,0,1-1.28,1.41,7.7,7.7,0,0,1-1.67,1,3.9,3.9,0,0,1,.94.73,5.94,5.94,0,0,1,.78,1.06,9.4,9.4,0,0,1,.69,1.42c.22.53.43,1.13.65,1.81l1.88,5.86c.15.49.25.84.29,1A2.49,2.49,0,0,1,429.25,154.35Zm-19.81-.93a6.18,6.18,0,0,1,0,.65,1.35,1.35,0,0,1-.11.46.75.75,0,0,1-.19.27.38.38,0,0,1-.23.08H398.82a1,1,0,0,1-.7-.32,1.51,1.51,0,0,1-.33-1.12V129.72a1.55,1.55,0,0,1,.33-1.12,1,1,0,0,1,.7-.32h9.94a.36.36,0,0,1,.24.09.51.51,0,0,1,.17.26,3,3,0,0,1,.11.47,6.07,6.07,0,0,1,0,.68,5.79,5.79,0,0,1,0,.65,2.84,2.84,0,0,1-.11.46.58.58,0,0,1-.17.25.35.35,0,0,1-.24.08h-8.19v8.35h7a.38.38,0,0,1,.24.09.9.9,0,0,1,.17.26,1.84,1.84,0,0,1,.11.45,6.59,6.59,0,0,1,0,.67,5.72,5.72,0,0,1,0,.64,1.75,1.75,0,0,1-.11.44.62.62,0,0,1-.17.23.43.43,0,0,1-.24.08h-7v9.51h8.31a.38.38,0,0,1,.23.08.92.92,0,0,1,.19.26,1.29,1.29,0,0,1,.11.45A6.73,6.73,0,0,1,409.44,153.42Zm-23.3.84a1,1,0,0,1-.18.38.82.82,0,0,1-.31.22,1.75,1.75,0,0,1-.52.11c-.21,0-.47,0-.78,0l-.63,0a2,2,0,0,1-.46-.05,1.93,1.93,0,0,1-.33-.09.92.92,0,0,1-.24-.13,1,1,0,0,1-.15-.2,2,2,0,0,1-.11-.28l-6.85-24.7a3.24,3.24,0,0,1-.14-.73.53.53,0,0,1,.14-.42.82.82,0,0,1,.47-.19,6.93,6.93,0,0,1,.88,0,6.83,6.83,0,0,1,.72,0,1.14,1.14,0,0,1,.41.11.58.58,0,0,1,.22.22,2.35,2.35,0,0,1,.14.34l6,22.38h0l5.85-22.34a2.07,2.07,0,0,1,.11-.37.47.47,0,0,1,.23-.23,1.48,1.48,0,0,1,.45-.11q.3,0,.78,0a5.2,5.2,0,0,1,.79.05.6.6,0,0,1,.4.2.58.58,0,0,1,.08.42,4.29,4.29,0,0,1-.16.73Zm-15.34.09a.72.72,0,0,1-.06.29.49.49,0,0,1-.23.19,1.61,1.61,0,0,1-.43.12,3.13,3.13,0,0,1-.67.06,3.1,3.1,0,0,1-.66-.06,1.83,1.83,0,0,1-.44-.12.45.45,0,0,1-.23-.19.72.72,0,0,1-.06-.29V128.82a.49.49,0,0,1,.31-.49,2.71,2.71,0,0,1,.44-.12,3.87,3.87,0,0,1,.64-.05,4.08,4.08,0,0,1,.67.05,2.11,2.11,0,0,1,.43.12.51.51,0,0,1,.23.2.65.65,0,0,1,.06.29Zm-9.65-.93a1.81,1.81,0,0,1-.11.7,1.42,1.42,0,0,1-.27.47,1,1,0,0,1-.38.27,1,1,0,0,1-.42.08h-.89a2.35,2.35,0,0,1-.74-.11,1.61,1.61,0,0,1-.6-.41,3.87,3.87,0,0,1-.57-.82c-.18-.33-.39-.78-.62-1.31l-6.61-15.13c-.34-.78-.69-1.59-1-2.45s-.68-1.69-1-2.5h0c0,1,0,2,.05,3s0,2.05,0,3.07v16a.63.63,0,0,1-.06.27.5.5,0,0,1-.22.21,1.55,1.55,0,0,1-.41.12,2.78,2.78,0,0,1-.64.06A2.84,2.84,0,0,1,346,155a1.29,1.29,0,0,1-.39-.12.43.43,0,0,1-.21-.21.52.52,0,0,1-.07-.27V129.81a1.62,1.62,0,0,1,.36-1.18,1.08,1.08,0,0,1,.78-.35h1.32a2.5,2.5,0,0,1,.79.11,1.4,1.4,0,0,1,.57.34,2.68,2.68,0,0,1,.48.66,10.45,10.45,0,0,1,.51,1.05l5.09,11.68.9,2.08q.45,1,.84,2c.27.65.55,1.3.81,1.94s.53,1.28.78,1.92h0c0-1.08,0-2.21,0-3.38s0-2.3,0-3.38V128.88a.82.82,0,0,1,.06-.27.59.59,0,0,1,.23-.21.93.93,0,0,1,.4-.14,3.93,3.93,0,0,1,.66,0,3.67,3.67,0,0,1,.61,0,.93.93,0,0,1,.4.14.53.53,0,0,1,.21.21.52.52,0,0,1,.07.27Zm-22.66-8.36a15,15,0,0,1-.56,4.32,9.42,9.42,0,0,1-1.59,3.22,6.62,6.62,0,0,1-2.53,2,8.1,8.1,0,0,1-3.38.68,7.72,7.72,0,0,1-3.16-.63,6.72,6.72,0,0,1-2.45-1.89,8.66,8.66,0,0,1-1.57-3.11,15.26,15.26,0,0,1-.55-4.32v-16.5a.54.54,0,0,1,.07-.29.44.44,0,0,1,.22-.2,2.42,2.42,0,0,1,.42-.12,4,4,0,0,1,.68-.05,4.27,4.27,0,0,1,.67.05,2.31,2.31,0,0,1,.43.12.45.45,0,0,1,.21.2.54.54,0,0,1,.07.29v16.07a13.36,13.36,0,0,0,.35,3.23,6.46,6.46,0,0,0,1,2.29,4.41,4.41,0,0,0,1.61,1.38,4.8,4.8,0,0,0,2.14.46,5,5,0,0,0,2.16-.45,4.24,4.24,0,0,0,1.6-1.36,6.71,6.71,0,0,0,1-2.24,12.62,12.62,0,0,0,.34-3.12V128.82a.54.54,0,0,1,.07-.29.48.48,0,0,1,.22-.2,2.56,2.56,0,0,1,.43-.12,4.17,4.17,0,0,1,.67-.05,4,4,0,0,1,.66.05,2,2,0,0,1,.42.12.57.57,0,0,1,.23.2.54.54,0,0,1,.07.29Zm-28.3,9.29a.59.59,0,0,1-.07.29.42.42,0,0,1-.22.19,1.73,1.73,0,0,1-.43.12,3.13,3.13,0,0,1-.67.06,3.1,3.1,0,0,1-.66-.06,1.59,1.59,0,0,1-.44-.12.45.45,0,0,1-.23-.19.72.72,0,0,1-.06-.29V128.82a.49.49,0,0,1,.31-.49,2.71,2.71,0,0,1,.44-.12,3.78,3.78,0,0,1,.64-.05,4.08,4.08,0,0,1,.67.05,2.31,2.31,0,0,1,.43.12.44.44,0,0,1,.22.2.54.54,0,0,1,.07.29Zm-16.6-22.53h0L290,145.08h7.29Zm9,21.81a3.85,3.85,0,0,1,.14.72.62.62,0,0,1-.12.42.66.66,0,0,1-.43.19,5.61,5.61,0,0,1-.81,0,8,8,0,0,1-.8,0,1.37,1.37,0,0,1-.45-.1.49.49,0,0,1-.23-.19,3.11,3.11,0,0,1-.14-.31L298,147.89h-8.71l-1.72,6.39a1.41,1.41,0,0,1-.13.32.66.66,0,0,1-.24.23,1.09,1.09,0,0,1-.44.13,4.62,4.62,0,0,1-.73,0,4,4,0,0,1-.77-.06.69.69,0,0,1-.42-.19.67.67,0,0,1-.12-.43,3.24,3.24,0,0,1,.14-.73l7-24.7a1.15,1.15,0,0,1,.17-.37.68.68,0,0,1,.31-.23,2,2,0,0,1,.52-.11c.21,0,.47,0,.8,0s.63,0,.86,0a2.21,2.21,0,0,1,.55.11.8.8,0,0,1,.32.24,1.22,1.22,0,0,1,.18.38Zm-22.56.72a.72.72,0,0,1-.06.29.49.49,0,0,1-.23.19,1.73,1.73,0,0,1-.43.12,3.1,3.1,0,0,1-.66.06A3.23,3.23,0,0,1,278,155a1.77,1.77,0,0,1-.42-.12.46.46,0,0,1-.22-.19.59.59,0,0,1-.07-.29v-11.8h-9.54v11.8a.72.72,0,0,1-.06.29.49.49,0,0,1-.23.19,1.73,1.73,0,0,1-.43.12,3.13,3.13,0,0,1-.67.06,3.1,3.1,0,0,1-.66-.06,1.59,1.59,0,0,1-.44-.12.45.45,0,0,1-.23-.19.72.72,0,0,1-.06-.29V128.82a.65.65,0,0,1,.06-.29.46.46,0,0,1,.23-.2,2,2,0,0,1,.44-.12,4.45,4.45,0,0,1,1.33,0,2.31,2.31,0,0,1,.43.12.51.51,0,0,1,.23.2.65.65,0,0,1,.06.29v10.65h9.54V128.82a.54.54,0,0,1,.07-.29.48.48,0,0,1,.22-.2,2.42,2.42,0,0,1,.42-.12,4.21,4.21,0,0,1,.68-.05,4,4,0,0,1,.66.05,2.31,2.31,0,0,1,.43.12.51.51,0,0,1,.23.2.65.65,0,0,1,.06.29ZM258.48,131.9q0,.39,0,.69a2.32,2.32,0,0,1-.1.49.49.49,0,0,1-.16.28.37.37,0,0,1-.21.08,1.34,1.34,0,0,1-.65-.39,10.87,10.87,0,0,0-1.21-.86,9.77,9.77,0,0,0-1.83-.86,7.07,7.07,0,0,0-2.51-.4,6,6,0,0,0-3.12.81,7.13,7.13,0,0,0-2.33,2.22,10.7,10.7,0,0,0-1.46,3.37,18.16,18.16,0,0,0,0,8.75,10.47,10.47,0,0,0,1.54,3.33,6.69,6.69,0,0,0,2.36,2.06,6.56,6.56,0,0,0,3,.7,6.78,6.78,0,0,0,2-.3,6.53,6.53,0,0,0,1.86-.9v-7.74h-4.86c-.19,0-.32-.12-.42-.35a3.22,3.22,0,0,1-.14-1.09,4.38,4.38,0,0,1,0-.67,1.59,1.59,0,0,1,.1-.45.69.69,0,0,1,.17-.26.41.41,0,0,1,.25-.08h6.65a.94.94,0,0,1,.36.08.85.85,0,0,1,.32.25,1.12,1.12,0,0,1,.23.45,2.59,2.59,0,0,1,.08.66V151.9a2.5,2.5,0,0,1-.15.92,1.37,1.37,0,0,1-.61.69,10.87,10.87,0,0,1-1.22.65,11.3,11.3,0,0,1-1.53.6,11.63,11.63,0,0,1-1.61.36,9.68,9.68,0,0,1-1.6.13,9.52,9.52,0,0,1-4.34-1,8.89,8.89,0,0,1-3.23-2.72,13,13,0,0,1-2-4.23,22.34,22.34,0,0,1,.06-11.25,13.54,13.54,0,0,1,2.12-4.38,9.68,9.68,0,0,1,3.29-2.8,9.12,9.12,0,0,1,4.25-1,9,9,0,0,1,2.25.27,12,12,0,0,1,1.87.63,6.78,6.78,0,0,1,1.38.78,3.91,3.91,0,0,1,.76.69,1.52,1.52,0,0,1,.3.61A5,5,0,0,1,258.48,131.9Zm-22.61,21.52a1.81,1.81,0,0,1-.11.7,1.42,1.42,0,0,1-.27.47,1,1,0,0,1-.38.27,1,1,0,0,1-.42.08h-.89a2.35,2.35,0,0,1-.74-.11,1.61,1.61,0,0,1-.6-.41,3.87,3.87,0,0,1-.57-.82c-.18-.33-.39-.78-.62-1.31l-6.61-15.13c-.34-.78-.69-1.59-1-2.45s-.68-1.69-1-2.5h0c0,1,0,2,0,3s0,2.05,0,3.07v16a.63.63,0,0,1-.06.27.5.5,0,0,1-.22.21,1.55,1.55,0,0,1-.41.12,2.78,2.78,0,0,1-.64.06,2.84,2.84,0,0,1-.64-.06,1.29,1.29,0,0,1-.39-.12.43.43,0,0,1-.21-.21.52.52,0,0,1-.07-.27V129.81a1.62,1.62,0,0,1,.36-1.18,1.08,1.08,0,0,1,.78-.35h1.32a2.5,2.5,0,0,1,.79.11,1.4,1.4,0,0,1,.57.34,2.68,2.68,0,0,1,.48.66,10.45,10.45,0,0,1,.51,1.05l5.09,11.68.9,2.08q.45,1,.84,2c.27.65.55,1.3.81,1.94s.53,1.28.78,1.92h0c0-1.08,0-2.21,0-3.38s0-2.3,0-3.38V128.88a.82.82,0,0,1,.06-.27.59.59,0,0,1,.23-.21.93.93,0,0,1,.4-.14,3.93,3.93,0,0,1,.66,0,3.67,3.67,0,0,1,.61,0,.93.93,0,0,1,.4.14.53.53,0,0,1,.21.21.52.52,0,0,1,.07.27Zm-29.65-21.6h0l-3.61,13.26h7.28Zm9,21.81a3.85,3.85,0,0,1,.14.72.57.57,0,0,1-.13.42.62.62,0,0,1-.43.19,5.45,5.45,0,0,1-.8,0,8,8,0,0,1-.8,0,1.37,1.37,0,0,1-.45-.1.49.49,0,0,1-.23-.19,3.11,3.11,0,0,1-.14-.31l-1.8-6.48h-8.71l-1.72,6.39a1.07,1.07,0,0,1-.12.32.76.76,0,0,1-.24.23,1.09,1.09,0,0,1-.44.13,4.72,4.72,0,0,1-.73,0,4,4,0,0,1-.77-.06.69.69,0,0,1-.42-.19.61.61,0,0,1-.12-.43,3.24,3.24,0,0,1,.14-.73l7-24.7a1,1,0,0,1,.17-.37.68.68,0,0,1,.31-.23,2,2,0,0,1,.52-.11c.21,0,.47,0,.8,0s.63,0,.85,0a2.21,2.21,0,0,1,.55.11.77.77,0,0,1,.33.24,1.49,1.49,0,0,1,.18.38Zm-22.56.72a.73.73,0,0,1-.07.29.46.46,0,0,1-.22.19,1.87,1.87,0,0,1-.43.12,3.1,3.1,0,0,1-.66.06,3.17,3.17,0,0,1-.68-.06,1.77,1.77,0,0,1-.42-.12.49.49,0,0,1-.23-.19.72.72,0,0,1-.06-.29v-11.8h-9.54v11.8a.59.59,0,0,1-.07.29.42.42,0,0,1-.22.19,1.7,1.7,0,0,1-.44.12,3,3,0,0,1-.66.06,3.26,3.26,0,0,1-.67-.06,1.61,1.61,0,0,1-.43-.12.45.45,0,0,1-.23-.19.73.73,0,0,1-.07-.29V128.82a.65.65,0,0,1,.07-.29.46.46,0,0,1,.23-.2,2.11,2.11,0,0,1,.43-.12,4.27,4.27,0,0,1,.67-.05,3.86,3.86,0,0,1,.66.05,2.23,2.23,0,0,1,.44.12.44.44,0,0,1,.22.2.54.54,0,0,1,.07.29v10.65h9.54V128.82a.65.65,0,0,1,.06-.29.51.51,0,0,1,.23-.2,2.42,2.42,0,0,1,.42-.12,4.12,4.12,0,0,1,.68-.05,4,4,0,0,1,.66.05,2.56,2.56,0,0,1,.43.12.48.48,0,0,1,.22.2.65.65,0,0,1,.07.29Zm-20.38-6.93a9.61,9.61,0,0,1-.54,3.33,7.21,7.21,0,0,1-1.51,2.48,6.2,6.2,0,0,1-2.27,1.53,8.15,8.15,0,0,1-4.76.28,9.07,9.07,0,0,1-1.6-.55,6.69,6.69,0,0,1-1.18-.68,3.15,3.15,0,0,1-.66-.59,1.66,1.66,0,0,1-.28-.63,4.62,4.62,0,0,1-.09-1q0-.45,0-.75a3,3,0,0,1,.1-.48.58.58,0,0,1,.16-.26.35.35,0,0,1,.23-.07,1.16,1.16,0,0,1,.64.35,9.28,9.28,0,0,0,1.06.76,9.45,9.45,0,0,0,1.56.77,5.76,5.76,0,0,0,2.11.36,4.51,4.51,0,0,0,1.67-.31,3.72,3.72,0,0,0,1.29-.87,3.81,3.81,0,0,0,.84-1.39,5.69,5.69,0,0,0,.29-1.87,4.23,4.23,0,0,0-.41-1.93,5.06,5.06,0,0,0-1.07-1.41,8.8,8.8,0,0,0-1.51-1.11l-1.74-1a16.83,16.83,0,0,1-1.73-1.16,7.66,7.66,0,0,1-1.51-1.5,7,7,0,0,1-1.08-2,8.44,8.44,0,0,1-.41-2.78,8.57,8.57,0,0,1,.48-3,6.28,6.28,0,0,1,1.32-2.19,5.73,5.73,0,0,1,2-1.35,6.81,6.81,0,0,1,2.53-.46,6.95,6.95,0,0,1,2.73.57,6.39,6.39,0,0,1,1.11.57,2.63,2.63,0,0,1,.64.52,1.89,1.89,0,0,1,.21.3,1.12,1.12,0,0,1,.07.29,4.05,4.05,0,0,1,0,.42c0,.17,0,.38,0,.64s0,.47,0,.66a4,4,0,0,1-.08.48.71.71,0,0,1-.13.29.29.29,0,0,1-.21.09,1.2,1.2,0,0,1-.56-.28c-.25-.2-.56-.41-.93-.66a8.28,8.28,0,0,0-1.3-.65,4.54,4.54,0,0,0-1.69-.3,3.6,3.6,0,0,0-1.53.3,3,3,0,0,0-1.06.79,3,3,0,0,0-.63,1.18,4.46,4.46,0,0,0-.22,1.43,4.17,4.17,0,0,0,.41,1.91,4.66,4.66,0,0,0,1.08,1.42,9.38,9.38,0,0,0,1.52,1.13l1.76,1c.59.35,1.17.73,1.74,1.15a7.4,7.4,0,0,1,1.53,1.48,6.91,6.91,0,0,1,1.09,2A8.38,8.38,0,0,1,172.3,147.42Zm312.19-2.88v9.81a.59.59,0,0,1-.07.29.45.45,0,0,1-.23.19,1.61,1.61,0,0,1-.43.12,3.26,3.26,0,0,1-.67.06,3.13,3.13,0,0,1-.67-.06,2,2,0,0,1-.44-.12.45.45,0,0,1-.23-.19.73.73,0,0,1-.07-.29v-9.81l-5.92-15a3.47,3.47,0,0,1-.22-.74.48.48,0,0,1,.08-.41.67.67,0,0,1,.44-.19,6.42,6.42,0,0,1,.85,0,5.57,5.57,0,0,1,.78,0,2.89,2.89,0,0,1,.48.11.58.58,0,0,1,.27.21,2.14,2.14,0,0,1,.17.34l2.9,7.65c.27.72.53,1.48.8,2.28l.83,2.4h0c.24-.78.5-1.56.76-2.33s.54-1.54.81-2.29l2.91-7.69a1.11,1.11,0,0,1,.14-.35.56.56,0,0,1,.24-.22,2,2,0,0,1,.43-.11,4.64,4.64,0,0,1,.7,0,6.92,6.92,0,0,1,.91.05.82.82,0,0,1,.47.2.48.48,0,0,1,.08.41,3.07,3.07,0,0,1-.22.72Zm-11-14.73a6.59,6.59,0,0,1,0,.67,1.24,1.24,0,0,1-.11.46.69.69,0,0,1-.17.26.36.36,0,0,1-.24.09H467v23.06a.59.59,0,0,1-.07.29.41.41,0,0,1-.23.19,1.53,1.53,0,0,1-.42.12,3.17,3.17,0,0,1-.68.06A3.1,3.1,0,0,1,465,155a1.83,1.83,0,0,1-.44-.12.42.42,0,0,1-.22-.19.59.59,0,0,1-.07-.29V131.29h-5.89a.36.36,0,0,1-.24-.09.51.51,0,0,1-.17-.26,2.39,2.39,0,0,1-.11-.46,6.59,6.59,0,0,1,0-.67,6.87,6.87,0,0,1,0-.69,3,3,0,0,1,.11-.49.51.51,0,0,1,.17-.26.36.36,0,0,1,.24-.09h14.57a.36.36,0,0,1,.24.09.69.69,0,0,1,.17.26,1.48,1.48,0,0,1,.11.49A6.87,6.87,0,0,1,473.47,129.81Zm-20,24.54a.59.59,0,0,1-.07.29.42.42,0,0,1-.22.19,1.73,1.73,0,0,1-.43.12,3.13,3.13,0,0,1-.67.06,3.26,3.26,0,0,1-.67-.06,1.61,1.61,0,0,1-.43-.12.45.45,0,0,1-.23-.19.73.73,0,0,1-.07-.29V128.82a.55.55,0,0,1,.08-.29.54.54,0,0,1,.24-.2,2.45,2.45,0,0,1,.44-.12,3.78,3.78,0,0,1,.64-.05,4.08,4.08,0,0,1,.67.05,2.31,2.31,0,0,1,.43.12.44.44,0,0,1,.22.2.54.54,0,0,1,.07.29Zm-8.07-6.93a9.61,9.61,0,0,1-.54,3.33,7.21,7.21,0,0,1-1.51,2.48,6.25,6.25,0,0,1-2.26,1.53,7.66,7.66,0,0,1-2.81.51,7.5,7.5,0,0,1-1.95-.23,8.91,8.91,0,0,1-1.61-.55,6.69,6.69,0,0,1-1.18-.68,3.15,3.15,0,0,1-.66-.59,1.66,1.66,0,0,1-.28-.63,4.62,4.62,0,0,1-.09-1q0-.45,0-.75a3,3,0,0,1,.1-.48.58.58,0,0,1,.16-.26A.37.37,0,0,1,433,150a1.13,1.13,0,0,1,.64.35,9.28,9.28,0,0,0,1.06.76,9.45,9.45,0,0,0,1.56.77,5.76,5.76,0,0,0,2.11.36,4.47,4.47,0,0,0,1.67-.31,3.72,3.72,0,0,0,1.29-.87,3.81,3.81,0,0,0,.84-1.39,5.69,5.69,0,0,0,.29-1.87,4.23,4.23,0,0,0-.41-1.93,4.88,4.88,0,0,0-1.07-1.41,8.8,8.8,0,0,0-1.51-1.11l-1.74-1a19.34,19.34,0,0,1-1.73-1.16,7.66,7.66,0,0,1-1.51-1.5,7.53,7.53,0,0,1-1.08-2,8.44,8.44,0,0,1-.41-2.78,8.57,8.57,0,0,1,.48-3,6.28,6.28,0,0,1,1.32-2.19,5.73,5.73,0,0,1,2-1.35,6.81,6.81,0,0,1,2.53-.46,6.95,6.95,0,0,1,2.73.57,6.39,6.39,0,0,1,1.11.57,2.63,2.63,0,0,1,.64.52,1.89,1.89,0,0,1,.21.3,1.12,1.12,0,0,1,.07.29,2.42,2.42,0,0,1,.05.42c0,.17,0,.38,0,.64s0,.47,0,.66-.05.35-.07.48a.87.87,0,0,1-.14.29.29.29,0,0,1-.21.09,1.14,1.14,0,0,1-.55-.28c-.26-.2-.57-.41-.93-.66a8.41,8.41,0,0,0-1.31-.65,4.54,4.54,0,0,0-1.69-.3,3.63,3.63,0,0,0-1.53.3,3,3,0,0,0-1.06.79,3.26,3.26,0,0,0-.63,1.18,4.46,4.46,0,0,0-.22,1.43,4.17,4.17,0,0,0,.41,1.91,4.66,4.66,0,0,0,1.08,1.42,9.38,9.38,0,0,0,1.52,1.13l1.76,1c.59.35,1.17.73,1.74,1.15a7.4,7.4,0,0,1,1.53,1.48,6.91,6.91,0,0,1,1.09,2A8.38,8.38,0,0,1,445.4,147.42Z"/><path class="cls-2" d="M281.09,104.28c.66.31,1.28.66,1.94.91a1.45,1.45,0,0,0,1,0c.19-.09.25-.62.18-.91,0-.12-.53-.14-.81-.19s-.29,0-.42,0a13.59,13.59,0,0,0-6.37.17c-2,.37-3.77-.49-5.52-1.31a3.65,3.65,0,0,0-.64-.35c-2.63-.67-3.45-2.79-3.91-5.08a30.14,30.14,0,0,1-.09-9.62c.08-.65.21-1.31.26-2a5.86,5.86,0,0,0-.12-1.09,8,8,0,0,0-1.08.25,14.56,14.56,0,0,1-2.25.84,7.32,7.32,0,0,1-2.68,0,2.71,2.71,0,0,1-1.78-3.87,1.76,1.76,0,0,1,1.16-.71c3-.45,5.51-2,8.19-3.15.33-.15.55-.7.71-1.1.84-2.16,1.52-4.38,2.48-6.47q3-6.43,6.2-12.76c1.16-2.26,2.61-4.37,3.91-6.57a3.89,3.89,0,0,0,.55-1.78,14,14,0,0,1-2.26,1A12.81,12.81,0,0,0,275,53.07a10.41,10.41,0,0,1-2.95,1.15,9.25,9.25,0,0,0-1.73-1.41,4.8,4.8,0,0,1-2.78-5.5,47.34,47.34,0,0,1,3.51-11.4,75.78,75.78,0,0,1,6.79-12c.25-.38.51-.76.77-1.13,1.22-1.71,2.5-3,5-2.2,1.86.57,3.28,2,3.09,3.95a14.58,14.58,0,0,1-.48,2.47,32.63,32.63,0,0,1-4.51,9.31c-1,1.46-1.86,3-2.74,4.47a14.35,14.35,0,0,0-.72,1.81,6.57,6.57,0,0,0,1.56-.36c3.31-1.88,6.58-3.84,9.92-5.68,1.82-1,3.72-1.88,5.62-2.75.58-.27,1.43-.66,1.88-.44,1.44.73,3,1.5,3.67,3.12a4.11,4.11,0,0,1-.06,2.52c-.69,2.34-2.43,4-3.87,5.93-1.94,2.56-3.8,5.18-5.67,7.78a8.43,8.43,0,0,0-.55,1.08l.19.24a16.78,16.78,0,0,0,1.79-.92A5.34,5.34,0,0,1,301,55.68a11.6,11.6,0,0,0,.71,1.52,8.39,8.39,0,0,1,.75,5.48c-.41,2.08-.47,4.23-.67,6.34a.84.84,0,0,0,1,1c2.19-.11,4.39-.25,6.57-.51.8-.09,1.52-.36,2.29.17a3.83,3.83,0,0,0,1.3.33c1.33.31,2.68.54,4,1,1.92.61,2.88,2.39,2.18,3.85-.13.28-.32.64-.56.73-1.71.57-3.36,1.54-5.29.7a7.27,7.27,0,0,0-2.32-.53,49,49,0,0,0-9.37.34,2.06,2.06,0,0,0-1.95,1.82c-1.13,4.58-2.39,9.13-3.59,13.69-.16.61-.25,1.25-.44,2.2,1.7-1.27,2.8-.41,3.86.45a1.15,1.15,0,0,1,.27,1.59c-.72,1.31-1.29,2.71-2.1,4a3.93,3.93,0,0,1-1.82,1.61,8.31,8.31,0,0,0-5.06,4.82c-.74,1.6-2.33,2.83-3.63,4.14a1.35,1.35,0,0,1-2,0c-1-1-2-2.13-2.95-3.19a4,4,0,0,0-.73-.75C280.64,105.89,280.49,105.3,281.09,104.28Zm.62-10.93c.1-.16,2.31-2.5,2.36-2.65.39-1.06-.09-1.63-.75-2.43a3.36,3.36,0,0,1-.19-.38,9.33,9.33,0,0,1-.66-7.42c.29-1,0-1.4-1-1.06a45.45,45.45,0,0,0-4.63,1.9,1.5,1.5,0,0,0-.61,1,62.79,62.79,0,0,1-1.42,6.73c-.78,2.32-.24,4.62-.44,6.91-.06.68.34,1.05,1,1.05,3.72,0,7.44,0,11.16,0a12.83,12.83,0,0,0,3.4-.63,2.44,2.44,0,0,0,1.36-1.08,14.88,14.88,0,0,0,1.06-3q1.88-7.2,3.67-14.43c.23-.9,0-1.11-1-1-1.39.2-2.78.34-4.15.57-1.55.26-3.09.61-4.63.9A1.67,1.67,0,0,0,284.78,80a6.67,6.67,0,0,0,1.3,4.94c.85,1.11,1.79,2.15,2.54,3.32a1.64,1.64,0,0,1-.43,2.33,4.91,4.91,0,0,1-3.93.84A9.84,9.84,0,0,0,281.71,93.35Zm4.36-33.11c-.82,1.44-1.65,2.83-2.38,4.27-.11.21.2.78.47,1,1,.72,2,1.37,3,2,1.44.93,2.69,2,3,3.82a1.21,1.21,0,0,0,.89.75c1.75-.2,3.48-.54,5.22-.79a1.22,1.22,0,0,0,1.17-1.13c.24-1.48.52-3,.7-4.45a37.5,37.5,0,0,0,.32-4.49c0-1.35-1.9-2.91-2.93-2.43a31.88,31.88,0,0,0-4.08,2.27c-.71.45-1.28.79-2.09.29a1,1,0,0,0-.88-.11c-1,.7-1.56.18-2-.7C286.48,60.44,286.31,60.4,286.07,60.24Zm-7.16,14.83c1.66-.58,3.14-1.11,4.65-1.6a1.09,1.09,0,0,0,.67-1.74,23.62,23.62,0,0,0-1.69-2.64c-.26-.38-.61-.52-.89,0-.87,1.62-1.75,3.25-2.58,4.9A3.79,3.79,0,0,0,278.91,75.07Z"/><path class="cls-2" d="M366.25,74c-.31.52-.53.82-.68,1.15-1.48,3.43-2.86,6.91-4.46,10.28a37.87,37.87,0,0,1-4.81,8.31,40,40,0,0,1-3.65,4.4,50.2,50.2,0,0,1-5.52,3.94c-.43.29-4.82,2-5,1.63-.07-.12,4.18-2.22,4.27-3.54-2.3,1-6,2.9-8.79,2.67,1.14-.49,1.89-.71,2.27-.87a28.49,28.49,0,0,0,12.06-10.09,48.38,48.38,0,0,0,6.29-11.21c1-2.79,2.37-5.46,3.26-8.29s1.4-5.84,2.07-8.77a2.55,2.55,0,0,0,0-.73c-.12-1.3-.52-1.6-1.67-1A52.13,52.13,0,0,1,350.48,66a7.49,7.49,0,0,0-1.54.67A3.9,3.9,0,0,1,343.37,64a7.59,7.59,0,0,1-.49-1.79,2.22,2.22,0,0,1,.64-1.57,5.21,5.21,0,0,1,2.26-1A38.82,38.82,0,0,0,355,56.41c3.13-1.39,6.31-2.67,9.51-3.88A2.82,2.82,0,0,0,366.63,50c.7-5.61,1.63-11.2,1.2-16.9-.15-1.9-.6-3.48-2.55-4.29-.3-.13-.48-.74-.57-1.15-.13-.62-.11-1.27-.2-1.91-.21-1.6-.15-3,1.33-3.75,1.92-1,3.64-.85,4.73.56a13.07,13.07,0,0,1,2.85,7.25,36.92,36.92,0,0,1,.16,4.7c-.14,2.11-.54,4.19-.77,6.29-.26,2.3-.45,4.6-.65,6.9-.05.54,0,1.1,0,1.94l4.22-1.39a9.31,9.31,0,0,1,1.44-.53c1.46-.2,2.92-.32,4.38-.45a3.19,3.19,0,0,1,2.79.9,1.77,1.77,0,0,0,.62.37,1.72,1.72,0,0,1,1.12,2.27,10.73,10.73,0,0,1-1.05,1.9,8.43,8.43,0,0,1-1.24,1.74,4.43,4.43,0,0,1-1.91,1.16c-1.86.39-3.79.5-5.65.88a25.43,25.43,0,0,0-5.12,1.45,3.82,3.82,0,0,0-1.64,2.18c-.69,2-1.2,4-1.71,6-.2.79.56,1.11,1.08,1.14a2.36,2.36,0,0,1,2.17,1.86c.48,1.72,1.87,2.65,2.86,3.92s2,2.25,2.82,3.5a54.88,54.88,0,0,0,6.89,8.91,29.51,29.51,0,0,0,5,3.74c2.78,1.8,5.58,3.6,8.5,5.16a40.81,40.81,0,0,0,5.48,2,5.86,5.86,0,0,1,.57.26c.84.4,1.57.86,1.27,2a1.88,1.88,0,0,1-2.21,1.27l-.42,0c.47,1.13,0,2-1.22,1.94a53.61,53.61,0,0,1-5.8-.66c-2.28-.37-4.54-.86-6.8-1.34a10,10,0,0,1-5.7-3.53c-2-2.37-3.62-5-5.41-7.45-2.07-2.86-4.13-5.72-6.21-8.57-1.09-1.49-2.2-3-3.34-4.42C367.49,75.26,366.94,74.72,366.25,74Z"/><path class="cls-2" d="M179.41,54.56a7.28,7.28,0,0,1,.2,1.31c0,.91-.11,1.82-.12,2.73,0,2,.16,4.07-.06,6.08s1.17,3.92.25,5.93c-.07.16.06.41.08.62a32.86,32.86,0,0,1,.23,3.28c0,2-.21,4.1-.24,6.15,0,1.4.16,2.79.21,4.19a2.93,2.93,0,0,1-.13,1.43,1.48,1.48,0,0,0,0,1.66c.38.63.23,1-.5,1.25-.44.11-.88.23-1.31.38-4.42,1.56-8.53,2.76-12.95,4.3A34.45,34.45,0,0,1,161,95.34a2.09,2.09,0,0,0-1.78,3.26,16.37,16.37,0,0,0,2.09,2.47,3.56,3.56,0,0,0,3.88.8c.87-.27,1.74-.55,2.61-.81,2.85-.84,5.75-1.54,8.54-2.54,4.58-1.65,9.12-3.47,14-4.1,4.23-.55,8.54-.5,12.74-1.17,3.17-.51,6.06.26,8.87,1.2a5.47,5.47,0,0,0,5.64-1,4,4,0,0,0-1.93-7,31.76,31.76,0,0,0-11.82-1.3c-4.3.32-8.58.77-12.86,1.17-1.45.14-1.56.08-1.57-1.42,0-3.67,0-7.35,0-11,0-1.52.39-2.65,1.93-3.2.42-.15.76-.54,1.18-.67,1.28-.38,2.57-.75,3.88-1,1.09-.22,2.32-.06,3.3-.49a12,12,0,0,0,3.48-2.36c1.23-1.21.95-2.59-.21-3.86A4.86,4.86,0,0,0,198,61.08c-2.56.67-4.83,1.61-7.32,2.52-1.31.48-1.44.6-1.37-.79q.3-6.5.68-13c.08-1.31-.2-2.68.6-3.89.12-.18,0-.64-.19-.86-1.08-1.41-2.18-2.81-3.31-4.18-.64-.77-3.67-1.52-4.57-1.19a.56.56,0,0,0-.19.09c-.92.73-1.9,1.34-2.79,2.1-.14.12-.11.55-.11.77,0,1.87.13,3.75.15,5.62Z"/><path class="cls-2" d="M443.6,102.14c.56.21,1.12.39,1.67.63a26.89,26.89,0,0,0,2.47,1.09,2.65,2.65,0,0,0,3.15-1.34,25.57,25.57,0,0,0,2.65-5.44c.89-3,1.43-6.19,2-9.31.22-1.13,0-1.39-1.15-1.2-2.62.43-5.22.94-7.83,1.46a19.47,19.47,0,0,0-4,.94c-3.26,1.43-6.73,1.45-10.16,1.8a12.08,12.08,0,0,1-3.12-.13,3,3,0,0,1-2-3.92,1.91,1.91,0,0,1,2.15-1,12.8,12.8,0,0,0,6-.88,97.24,97.24,0,0,1,17.76-4.94c1.17-.22,1.26-.43.72-1.53s-1-1.91-1.49-2.9A4.82,4.82,0,0,1,454,70a15.83,15.83,0,0,0,3.89-5.82,9.82,9.82,0,0,0-1.07.31c-.54.24-1.07.53-1.61.77-3.27,1.49-5.2.75-6.57-2.58a1.08,1.08,0,0,1,.43-.94c3.6-.9,6.77-3.25,10.7-3a5.75,5.75,0,0,1,4.81,2.92c1.06,1.77.44,3.54-.58,5.14s-2.05,3-3.13,4.44c-.66.89-1.41,1.73-2.12,2.59-.1.14-.28.27-.3.42-.24,1.58.79,2.77,1.38,4.07.15.32,1,.45,1.55.44,3.81-.11,7.62-.37,11.43-.39a48.68,48.68,0,0,1,6.37.51,3.83,3.83,0,0,1,3.48,3.42c.23,1.32-1,1.76-1.66,2.46a8.56,8.56,0,0,1-1.82,1.2,6.18,6.18,0,0,1-5.28.39C470,85,466,85.6,462.06,86c-.72.06-1.05.48-1.16,1.24-.25,1.83-.54,3.66-.94,5.46-.54,2.42-1.06,4.86-1.83,7.2-1.25,3.78-3,7.28-6.77,9.21a9.78,9.78,0,0,1-3.59.93,2.7,2.7,0,0,1-2.84-2.38,1,1,0,0,1,.15-.75c.75-.77.42-1.46-.07-2.16s-1.06-1.52-1.6-2.28Z"/><path class="cls-2" d="M252.14,93.71a10.28,10.28,0,0,0,.83-1.57c.87-2.77,1.47-6,2.32-8.82.5-1.63,3-11,6.86-15.66-4.38,8.51-5.34,12.91-5.46,13.72-.16,1.06-.22,2.13-.33,3.19-.22,2-.36,4-.69,6s-.91,4.13-1.35,6.19a4.4,4.4,0,0,0-.1,1.14,2.29,2.29,0,0,1-1.47,2.58,4.75,4.75,0,0,0-1.19,1.06c-.32.36-.53.82-.86,1.18-1.61,1.69-3.46,1.48-4.61-.57a24.26,24.26,0,0,1-2.69-9,70.44,70.44,0,0,1,.42-20.5,64,64,0,0,1,5.28-16.43,6.41,6.41,0,0,1,2.83-3.4c1.85-.88,3.22-.61,4.39,1a2.39,2.39,0,0,1,.36,1.75c-.85,3.13-1.72,6.27-2.76,9.35-3,8.86-3.5,17.93-2.53,27.15a14.88,14.88,0,0,0,.29,1.48Z"/><path class="cls-2" d="M454.37,43.24c-.75-1.11-.89-1.14-2-.4s-3,1.64-6,3.53c1.34-1.15,6.67-5.58,6.63-5.64a5.44,5.44,0,0,1-2.28.51,22.5,22.5,0,0,0,2.94-3c-1.82.09-3.14,0-4.25-1.41a5.56,5.56,0,0,1-1.24-4.48A36,36,0,0,1,451,23.56c.17-.39.72-.66,1.14-.91a2.34,2.34,0,0,1,.81-.17c1.94-.29,3.06.39,3.19,2.39.16,2.53-.31,5-.38,7.55,0,1.14-.33,2.61-.44,3.74.1.05.2.14.29.19,1-1.1,2.47-2.45,3.38-3.61q3.09-3.9,6.06-7.9a8,8,0,0,0,1.25-2.52,4.76,4.76,0,0,0,0-2.4c-.22-.79-.09-1.11.67-1.26,4-.78,6.24,1,6.37,5.58A8.13,8.13,0,0,1,471,30c-1.73,1.91-3.51,3.8-5.38,5.57a12.26,12.26,0,0,1-4.95,3.36c-.17,0-.31.25-.46.39a11.23,11.23,0,0,1-1.49,1.36C457.33,41.53,455.88,42.35,454.37,43.24Zm1.85-2.38c.15.14.49-.32.63-.18.87-.94,2.49-2.52,3.36-3.45-.09-.1-.23-.32-.33-.42C459.22,38,456,38.77,456.22,40.86Z"/><path class="cls-2" d="M440.36,35.49c.76-.86,1.29-1.9,1.91-2.59s2.45-2.72,3.53-3.65c.19-.15.74-.67.85-.74.14-.25.39.29,0,.74a11,11,0,0,1-2.05,1.42,12.19,12.19,0,0,0-2.48,5.87c-.1,1.59-.59,3.15-.82,4.73-.09.65-.31,1.42.52,1.87.11.06.16.31.16.47.05,1.32,0,2.65.12,4,.17,2.11-1.14,3.36-2.56,4.5a1.86,1.86,0,0,1-2.66-.16A11.51,11.51,0,0,1,433,45.12a39.58,39.58,0,0,1,.18-12.62,2.25,2.25,0,0,1,1.64-2.08c1.5-.34,2.94-.48,3.76,1.22C439.16,32.82,439.69,34,440.36,35.49Z"/><path class="cls-2" d="M256.3,46.44c-1-.39-1.87-.84-2.84-1.16-1.7-.55-2.05-2.18-3-3.38-1.15-1.48-.91-3.33-1.78-4.83-.13-.23.2-1,.51-1.17a4.28,4.28,0,0,1,4.08-.65c3,1.13,5.55,2.84,6.57,6.12C260.64,43.94,259.06,46.14,256.3,46.44Z"/><path class="cls-2" d="M450.46,41.8c-.17,1.46-2,2-6.88,5.37C448.64,43,449.24,42,450.46,41.8Z"/><path class="cls-2" d="M482.1,46.71c-1.35-2.05-3.39-2.84-5.64-3.26a29.71,29.71,0,0,0-13.39.87,81.1,81.1,0,0,0-11.37,4c-4.46,2-8.75,4.39-13.07,6.7-2.83,1.51-5.71,3-8,5.3a3.87,3.87,0,0,1-.82.44c.19-2.85,1.47-5.47.36-8.22A5.44,5.44,0,0,0,426.77,55c-.73,1.31-1.45,2.64-2.11,4a38,38,0,0,0-3.87,11.49c-.24,1.78-.24,3.65,1.49,4.83a5.42,5.42,0,0,0,2.13.66c2.54.43,3.41-.34,3.47-2.71a56.56,56.56,0,0,1,.77-8c.39-2.31,2.15-3.58,4.53-3.69a16.31,16.31,0,0,0,8.39-2.21c3-1.92,6.25-3.55,9.43-5.21a50.62,50.62,0,0,1,6.1-2.78c2.71-1,5.51-1.66,8.26-2.49.23-.08.42-.36.6-.56s.37-.45.67-.84c.25,1.22,1,.94,1.69.9,1.73-.09,3.48-.16,5.21-.08,1.17.06,1.28.33,1,1.49a9.49,9.49,0,0,1-3.08,4.28,14.42,14.42,0,0,1-4.28,3c.88.12,3.88-2.44,4.3-1.31,0,.05-1.54.93-.49.78a7.32,7.32,0,0,0,2.09-1c.75-.36,1.56-1.17,2.3-1.53.43-.21.62.57,1,.29.63-.49,1.22-1.88,2.48-.6-.09,0-.28.31-.4.47a8.31,8.31,0,0,1-1.26,1l-.73-.09c-.22-.09-.38.25-.38.25s-.33.62,0,.71.31,0,.69-.14l2.93-1.77s-.42.27-.43.26c.8-.35,1.23-.27,1.46-.45C482.5,52.5,483.75,49.21,482.1,46.71Z"/><path class="cls-2" d="M132.5,65.28C131.54,29.49,103,.54,67.14,0,30.36-.4,1,28.84,0,65.28L0,100c1.43,38.43,28.27,68.93,67.79,68.09,37.07-.83,63.87-30.77,64.74-66.94C132.53,89.17,132.77,77.23,132.5,65.28Zm-3.21,35.8c0,33.6-25.57,61.11-58.08,63.58h0c-.55,0-1.09.08-1.64.1s-1.09.05-1.64.06-1.11,0-1.67,0-1.11,0-1.66,0-1.1,0-1.65-.06-1.09-.06-1.63-.1-1.09-.09-1.62-.15-1.08-.11-1.61-.18l-1.6-.22c-31.23-4.78-53.26-31.75-53.26-63,0-11.88-.27-23.85,0-35.72,0-.55,0-1.09.05-1.63h0c0-.54.06-1.08.1-1.62S3.5,61,3.55,60.5s.11-1.07.18-1.6C7.26,30.24,29.48,7.38,58.09,3.75l1.61-.19,1.62-.14L63,3.31l1.65-.06,1.66,0,1.67,0,1.64.06,1.64.11h0l1.62.14c29.09,2.95,52.36,26,56,55.34.07.53.12,1.07.18,1.6s.09,1.07.14,1.61.07,1.08.09,1.62h0c0,.54,0,1.08.06,1.63C129.56,77.23,129.29,89.2,129.29,101.08Z"/><path class="cls-2" d="M113.17,97.26V70.82c0-27.21-20.93-46.73-46.91-46.73S19.36,43.6,19.36,70.82V97.26c0,27.21,20.93,49.8,46.9,49.8S113.17,124.47,113.17,97.26ZM44.56,35c10.86,3.71,18.73,8.11,20.63,12.55-12.32,12-7.38,27.66-7.74,42.52-.3,12.35-.55,5.24-12.89,7.49Zm8,66.66c2.55.63,7.43,2.69,8.45-1.53,1.29-12.38-.87-22.59-.06-34.46,1.48-15.42,15.72-27.77,31.54-29V57.35L88,59.93V95.56c-.43,7.31-1.06,14-6.72,19.48-8.59,7.49-18.16,8.47-26.74,3.34-7.33-4.6-6-10.45-11.61-12.66C44,102.46,47.84,100.84,52.61,101.68ZM26.78,95.61V72.47l0-18.12L39.87,61V93.05c0,20.21,10.12,33.71,26.38,33.71,17.28,0,26.39-14.36,26.39-33.71V62.29l13.18-7.56-.1,17.74V95.61c0,24.66-16.57,43.29-39.48,43.29h0C43.34,138.9,26.78,120.31,26.78,95.61Z"/><path class="cls-2" d="M48.9,106.63a1.52,1.52,0,1,0-1.53-1.52A1.52,1.52,0,0,0,48.9,106.63Z"/><path class="cls-2" d="M97.31,34.26h0l0,.1h0l0,.12h0l.08.14h0l.1.15h0l.13.18h0l.13.17h0l0,0h0l.07,0h0l.08,0h.81l.15,0h.38l.12,0h.14l.12,0h0l.17,0,.17,0h0l.25-.08.26-.09.4-.16.38-.16h.1l0,0a5.49,5.49,0,0,1,.78-.26h0l.2-.06.21-.05.16,0,.16,0h.13l.12,0,.06,0,0,0,.23.27.22.29c.14.19.29.38.41.58l0,.07v0h0l0,0a1.21,1.21,0,0,1,0,.18s0,0,0,.07a.17.17,0,0,1,0,.07h0l0,.13,0,.14h0l.42.55h0l.09,0,.09,0h0a.27.27,0,0,1,.12,0l.12,0h0l.11,0,.1.05h.18l.1,0H106l0,0h0a.08.08,0,0,1,0,0l0-.06h0a.88.88,0,0,1,.05-.15l0-.07h0V36.5h0v0h0s0-.09,0-.13v-.1l0-.05h0a.06.06,0,0,0,0,0h0a.36.36,0,0,0,0-.09h0a.25.25,0,0,1,0-.08s0-.05,0-.08a.5.5,0,0,0,0-.12v0h0a.14.14,0,0,1,0-.06v-.06h0l-.09-.14-.86-1.21-.21-.3h-.1l-.57-.76-.06-.15,0-.1,0-.07v-.06l0-.07h0l0,0h0l0-.1.54-.41.14,0h0l.06,0h.18l0,0h.71l.27,0,.25,0,0,0v0h0l.09,0a1.39,1.39,0,0,0,.19-.06h0a1.13,1.13,0,0,0,.26-.16l0,0h0l.08-.11.09-.1h0l.11-.15h0a.43.43,0,0,1,0-.05h0a.28.28,0,0,1,0-.09v-.05h0v-.13h0c0-.07,0-.15-.05-.22l-.06-.21h0a.55.55,0,0,1,0-.18h0l-.18-.24,0,0,0,0,0,0,0,0a1.29,1.29,0,0,0-.16-.17l-.18-.14h0l-.06,0h0a.94.94,0,0,0-.12-.09h0l-.05,0,0-.05h0l-.06-.07h0l-.25-.16L106,29.4h0l-.12-.1h-.5l-.12.1h0l-.08.09h0l-.07.1h0l0,.06h0l0,0h0v.05h0a.78.78,0,0,0,0,.22h0l0,.06v.11h0l.07.25,0,.13-.06.08a3.18,3.18,0,0,0-.27.37h0l-.15.12-.06,0h-.19l-.06,0-.07,0H104l0,0h0a1,1,0,0,0-.18.18l0,0-.07.09-.07.09-.2.15-.25.19-.22.17-.16-.09-.09-.07-.08-.05h0l0,0-.11-.09a.52.52,0,0,0-.11-.1l-.08-.07-.07-.08h0l-.1-.1-.12-.1-.1-.09-.11-.09,0-.05h0c-.16-.16-.34-.3-.51-.44h0l-.18-.14-.18-.14-.16-.11-.17-.1h0a.51.51,0,0,0-.15-.07h-.07l-.11-.14h0l-.08-.07-.08-.08-.06,0,0,0,0-.05h0l0,0-.32-.31,0,0a2.42,2.42,0,0,0-.31-.25H99l-.09,0h0l-.07,0h0l-.29.2-.11.08h0v0l0,.2h0l.06.13.07.13h0l0,.06,0,.06h0a1.13,1.13,0,0,0,.1.13.64.64,0,0,0,.1.13h0l.13.11.13.1h0l.84.66.45.36.45.37.41.39.28.29.17.2.15.2.07.1.07.12h0a.2.2,0,0,0,0,.07v.05h0l0,0,0,.08,0,.06-.07,0-.18.14-.17.11-.17.11-.09,0-.09,0-.14,0-.12.05h0l-.06,0h-.3l-.19,0h0l-.15,0-.16,0h0l-.34.09-.41.1h0L99.11,34h0l0,0L99,34l0,0,0,0-.09,0h-.07l-.28-.16-.28-.16h0l-.32.13h0l-.15.08h0l-.13.07h0l-.1.07h0L97.4,34h0l0,.06h0l0,.06h0v.07h0v.08Z"/><path class="cls-2" d="M46.21,146.58a.22.22,0,0,0-.06-.14l-.19-.16a1.38,1.38,0,0,0-.31-.21,1.58,1.58,0,0,0-.35-.17,1,1,0,0,0-.24-.08.24.24,0,0,0-.15,0,.21.21,0,0,0-.11.08l-2.59,3.82L37.5,147l2.59-3.82a.18.18,0,0,0,0-.25,1.72,1.72,0,0,0-.19-.17,3,3,0,0,0-.32-.21l-.34-.17-.24-.08h-.16a.22.22,0,0,0-.1.09l-6.22,9.15a.24.24,0,0,0,0,.12.22.22,0,0,0,.06.13,1.81,1.81,0,0,0,.19.17l.31.21.34.17a1.17,1.17,0,0,0,.25.08.28.28,0,0,0,.16,0,.25.25,0,0,0,.1-.08l2.87-4.23,4.71,2.71-2.87,4.23a.21.21,0,0,0,0,.12.28.28,0,0,0,.07.13,1,1,0,0,0,.18.16,1.93,1.93,0,0,0,.32.22,2,2,0,0,0,.34.16,1.11,1.11,0,0,0,.24.08.21.21,0,0,0,.26-.09l6.21-9.14A.19.19,0,0,0,46.21,146.58Z"/><path class="cls-2" d="M7.72,107.56a3.8,3.8,0,0,0,1.54.19,3,3,0,0,0,2.12-.94A4.49,4.49,0,0,0,12,106c.16-.32.32-.65.45-1s.27-.65.41-1a4.87,4.87,0,0,1,.45-.85,2.25,2.25,0,0,1,.61-.62,1.65,1.65,0,0,1,.85-.27,1.84,1.84,0,0,1,.67.07,1.38,1.38,0,0,1,.56.3,1.65,1.65,0,0,1,.41.55,2.1,2.1,0,0,1,.2.81,3,3,0,0,1-.07.91,3.77,3.77,0,0,1-.25.72c-.09.2-.18.37-.26.51a.69.69,0,0,0-.1.31.21.21,0,0,0,0,.11.37.37,0,0,0,.14.06l.23,0h.3l.29,0,.19,0,.13,0,.13-.11a1.29,1.29,0,0,0,.21-.36,3.1,3.1,0,0,0,.22-.61,5.4,5.4,0,0,0,.14-.72,4.84,4.84,0,0,0,0-.76,4.18,4.18,0,0,0-.32-1.34,2.94,2.94,0,0,0-.7-1,2.82,2.82,0,0,0-1.05-.65,3.59,3.59,0,0,0-1.38-.17,3.65,3.65,0,0,0-1.26.3,3.44,3.44,0,0,0-.88.64,3.75,3.75,0,0,0-.63.85,9.36,9.36,0,0,0-.46,1l-.4,1a4.54,4.54,0,0,1-.45.85,2.49,2.49,0,0,1-.6.61,1.66,1.66,0,0,1-.87.27,2.22,2.22,0,0,1-.87-.1,1.69,1.69,0,0,1-.67-.4A2.19,2.19,0,0,1,7,105a2.91,2.91,0,0,1-.21-.88A3.74,3.74,0,0,1,6.84,103a5.74,5.74,0,0,1,.29-.86,5.19,5.19,0,0,1,.31-.59.66.66,0,0,0,.13-.35.21.21,0,0,0,0-.12A.32.32,0,0,0,7.4,101a.65.65,0,0,0-.22,0,2,2,0,0,0-.35,0,1.41,1.41,0,0,0-.46.08.72.72,0,0,0-.27.16,1.54,1.54,0,0,0-.25.38,3.81,3.81,0,0,0-.26.65,4.29,4.29,0,0,0-.19.87,4.88,4.88,0,0,0,.33,2.54,3.3,3.3,0,0,0,2,1.9Z"/><path class="cls-2" d="M22.62,122.88a.43.43,0,0,0,0-.2.93.93,0,0,0-.07-.29,3.15,3.15,0,0,0-.17-.43,3.08,3.08,0,0,0-.19-.4,1.24,1.24,0,0,0-.16-.24.51.51,0,0,0-.16-.12.43.43,0,0,0-.2,0l-12,.41a1.29,1.29,0,0,0-.34,0,.24.24,0,0,0-.15.12.34.34,0,0,0,0,.24,1.93,1.93,0,0,0,.14.4,2.75,2.75,0,0,0,.18.35.69.69,0,0,0,.15.2.37.37,0,0,0,.15.08.42.42,0,0,0,.16,0l3.1-.15,1.9,4.33-2.37,1.92-.1.11a.33.33,0,0,0,0,.15.75.75,0,0,0,.06.24,2.52,2.52,0,0,0,.16.4,2.37,2.37,0,0,0,.19.39.46.46,0,0,0,.17.19.31.31,0,0,0,.21,0,1.07,1.07,0,0,0,.28-.18l9-7.41A.43.43,0,0,0,22.62,122.88ZM16,126.41l-1.59-3.62,6.43-.3h0Z"/><path class="cls-2" d="M33.45,145.09a.68.68,0,0,0,0-.22.66.66,0,0,0-.06-.2.65.65,0,0,0-.13-.16L30.52,142a.34.34,0,0,0-.12-.06.45.45,0,0,0-.16,0,.88.88,0,0,0-.19.1,2.9,2.9,0,0,0-.22.19,1,1,0,0,0-.29.38.21.21,0,0,0,.06.26l2,1.81-2.47,2.36a4.85,4.85,0,0,1-1.07-.42,5.07,5.07,0,0,1-.92-.65,4.23,4.23,0,0,1-1-1.32,3.19,3.19,0,0,1-.34-1.5,3.85,3.85,0,0,1,.42-1.59,5.47,5.47,0,0,1,1.2-1.58,6,6,0,0,1,1.57-1.1,4.84,4.84,0,0,1,1.69-.48,4.24,4.24,0,0,1,1.69.19,4.49,4.49,0,0,1,1.56.92,5.15,5.15,0,0,1,.93,1.06,5.59,5.59,0,0,1,.48.94,4.94,4.94,0,0,1,.24.71.68.68,0,0,0,.15.36.22.22,0,0,0,.11,0,.31.31,0,0,0,.16,0l.19-.11.24-.2a1.88,1.88,0,0,0,.29-.34.57.57,0,0,0,.07-.29,2.26,2.26,0,0,0-.1-.5,4.54,4.54,0,0,0-.33-.75,8,8,0,0,0-.59-.89,6.52,6.52,0,0,0-.85-.92,6.82,6.82,0,0,0-2.1-1.28,6.2,6.2,0,0,0-2.28-.37,6.27,6.27,0,0,0-2.28.54A7.56,7.56,0,0,0,26.12,139a6.79,6.79,0,0,0-1.46,1.93,4.73,4.73,0,0,0-.51,2,4.48,4.48,0,0,0,.49,2,6.26,6.26,0,0,0,1.51,1.91,8,8,0,0,0,.71.56,6.52,6.52,0,0,0,.8.48,9,9,0,0,0,.83.4c.28.11.52.19.71.25a.8.8,0,0,0,.48,0,.79.79,0,0,0,.36-.23l3.23-3.07A.9.9,0,0,0,33.45,145.09Z"/><path class="cls-2" d="M20,116.73a.18.18,0,0,0,.06-.13,1,1,0,0,0,0-.24,2.22,2.22,0,0,0-.16-.7,1,1,0,0,0-.1-.21.35.35,0,0,0-.12-.1.2.2,0,0,0-.13,0l-4.79.94-1.15-5,4.78-.93a.23.23,0,0,0,.12-.06s0-.07.06-.14a.87.87,0,0,0,0-.23,1.81,1.81,0,0,0-.05-.36,1.94,1.94,0,0,0-.11-.34,1.16,1.16,0,0,0-.1-.22.27.27,0,0,0-.12-.1.22.22,0,0,0-.14,0L6.59,111.12a.23.23,0,0,0-.12.06.16.16,0,0,0-.06.14,1.63,1.63,0,0,0,0,.24c0,.09,0,.21.06.35a1.82,1.82,0,0,0,.11.35,1,1,0,0,0,.1.21.27.27,0,0,0,.12.1.22.22,0,0,0,.14,0l5.29-1,1.16,5-5.3,1a.23.23,0,0,0-.12.06.26.26,0,0,0-.06.14.88.88,0,0,0,0,.23,1.91,1.91,0,0,0,0,.36,1.7,1.7,0,0,0,.11.34l.1.22a.35.35,0,0,0,.12.1.33.33,0,0,0,.14,0l11.46-2.24A.23.23,0,0,0,20,116.73Z"/><path class="cls-2" d="M29.73,134.23a.21.21,0,0,0,0-.14.61.61,0,0,0-.07-.22l-.18-.28a2.09,2.09,0,0,0-.23-.29.6.6,0,0,0-.18-.15.44.44,0,0,0-.15-.05l-.12,0-5.56,3.32-1.3.78-1.29.79h0l.49-.79.49-.81q.25-.4.51-.84l.51-.88,2.88-5a3.13,3.13,0,0,0,.25-.47,1.21,1.21,0,0,0,.1-.37.76.76,0,0,0-.05-.33,1.65,1.65,0,0,0-.21-.38l-.42-.6a.74.74,0,0,0-.38-.26.68.68,0,0,0-.57.1l-9.45,5.65a.34.34,0,0,0-.08.09.19.19,0,0,0,0,.15.8.8,0,0,0,.07.2,2.35,2.35,0,0,0,.19.3,1.6,1.6,0,0,0,.39.43.27.27,0,0,0,.16.05.27.27,0,0,0,.12,0l6.18-3.7,1.18-.71,1.14-.71h0c-.21.32-.43.66-.65,1s-.42.69-.61,1l-3.73,6.45c-.13.23-.24.42-.31.58a1.84,1.84,0,0,0-.13.45.73.73,0,0,0,0,.36,1.58,1.58,0,0,0,.19.36l.28.4a.85.85,0,0,0,.17.16.51.51,0,0,0,.22.11.62.62,0,0,0,.27,0,.83.83,0,0,0,.31-.11l9.44-5.65A.2.2,0,0,0,29.73,134.23Z"/><path class="cls-2" d="M52.41,148.64a1.54,1.54,0,0,0-.29-.15c-.12-.05-.27-.11-.46-.17l-.45-.13a1.25,1.25,0,0,0-.3-.05.32.32,0,0,0-.2,0,.39.39,0,0,0-.15.11l-7.73,8.52a.79.79,0,0,0-.19.27.19.19,0,0,0,0,.18c0,.06.09.11.2.16a4,4,0,0,0,.41.16,2.48,2.48,0,0,0,.41.12l.26,0,.16-.05a.58.58,0,0,0,.12-.1l1.95-2.23,4.77,1.6,0,2.9,0,.15a.47.47,0,0,0,.09.12,1.76,1.76,0,0,0,.24.12,3.73,3.73,0,0,0,.43.16,3.79,3.79,0,0,0,.45.13.47.47,0,0,0,.26,0,.23.23,0,0,0,.14-.15,1.82,1.82,0,0,0,0-.31l0-11.1a.58.58,0,0,0,0-.18A.64.64,0,0,0,52.41,148.64ZM51,155.69l-4-1.33,4.06-4.6h0Z"/><path class="cls-2" d="M110.43,142.32a2.07,2.07,0,0,0-.21-.21,2.84,2.84,0,0,0-.23-.19.69.69,0,0,0-.2-.09.43.43,0,0,0-.16,0,.27.27,0,0,0-.12.06l-3.36,3.21L103,142.31l2.85-2.71a.34.34,0,0,0,.07-.11.23.23,0,0,0,0-.14.38.38,0,0,0-.1-.17,1.25,1.25,0,0,0-.2-.2,1.77,1.77,0,0,0-.23-.19l-.19-.09H105a.18.18,0,0,0-.13.06l-2.84,2.71L99.3,139l3.32-3.16a.24.24,0,0,0,.07-.12.2.2,0,0,0,0-.13.85.85,0,0,0-.1-.18l-.2-.2a1.64,1.64,0,0,0-.24-.19.83.83,0,0,0-.2-.09.23.23,0,0,0-.16,0,.37.37,0,0,0-.12.07l-4,3.83a.62.62,0,0,0-.18.37.6.6,0,0,0,.24.46l7.83,7a.61.61,0,0,0,.51.2.7.7,0,0,0,.39-.17l4.07-3.88a.29.29,0,0,0,.07-.12.28.28,0,0,0,0-.15A.44.44,0,0,0,110.43,142.32Z"/><path class="cls-2" d="M117.69,133.6a.85.85,0,0,0-.19-.09l-.49-.13-2.82-.64c-.32-.07-.62-.13-.89-.17a5.18,5.18,0,0,0-.76,0,3.53,3.53,0,0,0-.67.07,2.67,2.67,0,0,0-.59.23,4,4,0,0,0,.2-1,2.74,2.74,0,0,0-.09-.91,2.26,2.26,0,0,0-.41-.82,3.45,3.45,0,0,0-.79-.71,3.76,3.76,0,0,0-1-.49,2.83,2.83,0,0,0-1.08-.09,3.25,3.25,0,0,0-1.08.31,5.18,5.18,0,0,0-1,.72l-.37.38-.47.57-1.52,1.93a.57.57,0,0,0-.13.38.57.57,0,0,0,.31.42l9.14,6.12a.33.33,0,0,0,.13,0,.37.37,0,0,0,.16,0l.19-.15.25-.28a1.75,1.75,0,0,0,.2-.31.71.71,0,0,0,.11-.21.38.38,0,0,0,0-.15.19.19,0,0,0-.08-.1l-4.21-2.81.64-.81a2.45,2.45,0,0,1,.69-.62,2.25,2.25,0,0,1,.78-.26,2.83,2.83,0,0,1,.87,0,9.58,9.58,0,0,1,1,.18l3,.72.21,0a.39.39,0,0,0,.18,0l.2-.15.25-.29c.11-.14.19-.26.25-.35a.84.84,0,0,0,.1-.23.17.17,0,0,0,0-.14A.26.26,0,0,0,117.69,133.6Zm-7.64-.76a3.23,3.23,0,0,1-.53.91l-.93,1.18-3.33-2.23.81-1a5.6,5.6,0,0,1,.48-.57,2.37,2.37,0,0,1,.39-.34,1.87,1.87,0,0,1,1.2-.42,2.25,2.25,0,0,1,1.17.42,2.19,2.19,0,0,1,.58.55,1.36,1.36,0,0,1,.26.69A1.83,1.83,0,0,1,110.05,132.84Z"/><path class="cls-2" d="M59.32,150.27a1,1,0,0,0-.23-.1l-.38-.09a2.94,2.94,0,0,0-.37,0h-.26a.25.25,0,0,0-.16,0,.26.26,0,0,0-.07.11L55.62,160.8a.17.17,0,0,0,0,.12.29.29,0,0,0,.11.11l.24.09a1.63,1.63,0,0,0,.38.09,3.47,3.47,0,0,0,.39,0H57a.26.26,0,0,0,.15-.06.2.2,0,0,0,.06-.11l2.24-10.58a.28.28,0,0,0,0-.13A.25.25,0,0,0,59.32,150.27Z"/><path class="cls-2" d="M97.24,140.37a1.54,1.54,0,0,0-.12-.3.27.27,0,0,0-.15-.13.42.42,0,0,0-.24.06,2.88,2.88,0,0,0-.39.22l-.36.25a1.13,1.13,0,0,0-.19.18.24.24,0,0,0-.05.15,1.24,1.24,0,0,0,0,.16l3.1,9.53h0l-8.76-5.9a.43.43,0,0,0-.16-.07.28.28,0,0,0-.16,0,.73.73,0,0,0-.22.09,2.14,2.14,0,0,0-.36.21c-.17.11-.31.2-.41.28a.5.5,0,0,0-.17.21.18.18,0,0,0,.05.19,1.17,1.17,0,0,0,.25.21l9.78,6.44.12.06.13,0,.15,0,.18-.08a1.29,1.29,0,0,0,.23-.12,2.86,2.86,0,0,0,.3-.19c.15-.09.27-.18.37-.25a2.3,2.3,0,0,0,.22-.2.47.47,0,0,0,.09-.17.62.62,0,0,0,0-.19Z"/><path class="cls-2" d="M83.9,147.85a.23.23,0,0,0-.07-.1.52.52,0,0,0-.15-.06,1,1,0,0,0-.24,0l-.35.08c-.15,0-.27.09-.36.12a1,1,0,0,0-.21.12.24.24,0,0,0-.09.12.24.24,0,0,0,0,.12l1.94,5.83c.14.43.29.89.45,1.36s.32.93.48,1.36h0l-.69-.65-.71-.66-.74-.68-.78-.69L78,150.21a4.82,4.82,0,0,0-.42-.35,1.58,1.58,0,0,0-.36-.19.87.87,0,0,0-.36,0,2.14,2.14,0,0,0-.45.08l-.74.21a.7.7,0,0,0-.39.26.56.56,0,0,0,0,.53l3.3,9.91a.14.14,0,0,0,.07.1.2.2,0,0,0,.14.06,1.15,1.15,0,0,0,.24,0,1.48,1.48,0,0,0,.36-.08,1.56,1.56,0,0,0,.35-.12,1,1,0,0,0,.21-.11.28.28,0,0,0,.1-.12.25.25,0,0,0,0-.12l-2.15-6.48-.42-1.24c-.14-.41-.29-.82-.43-1.21h0c.27.27.56.56.88.85l.91.83L84.48,158a5.05,5.05,0,0,0,.52.43,2,2,0,0,0,.43.25,1.07,1.07,0,0,0,.39.07,2.3,2.3,0,0,0,.42-.07l.5-.14a.88.88,0,0,0,.22-.1.73.73,0,0,0,.18-.17.46.46,0,0,0,.09-.23.66.66,0,0,0,0-.3Z"/><path class="cls-2" d="M73.37,150.36a.26.26,0,0,0-.14-.07,1.18,1.18,0,0,0-.25,0H72.6a2.9,2.9,0,0,0-.39.05,1.26,1.26,0,0,0-.25.07.29.29,0,0,0-.12.09.27.27,0,0,0,0,.12l.52,6.86a3.7,3.7,0,0,1-.1,1.32,2.66,2.66,0,0,1-.51,1,2.52,2.52,0,0,1-.89.63,3.83,3.83,0,0,1-1.24.27,3.66,3.66,0,0,1-1.26-.12,2.5,2.5,0,0,1-1-.52,2.44,2.44,0,0,1-.67-.92,4.06,4.06,0,0,1-.31-1.35L65.85,151a.17.17,0,0,0,0-.12s-.07-.06-.13-.08l-.25,0a2.52,2.52,0,0,0-.39,0,2.9,2.9,0,0,0-.39,0,1,1,0,0,0-.24.07.22.22,0,0,0-.13.09.24.24,0,0,0,0,.12l.53,7a4.67,4.67,0,0,0,.46,1.79,3.5,3.5,0,0,0,1,1.26,4.31,4.31,0,0,0,1.48.7,6.22,6.22,0,0,0,1.86.15,6.67,6.67,0,0,0,2-.41,3.88,3.88,0,0,0,1.4-.94,3.5,3.5,0,0,0,.82-1.41,4.8,4.8,0,0,0,.19-1.85l-.52-6.84A.21.21,0,0,0,73.37,150.36Z"/><path class="cls-2" d="M87.52,146a.2.2,0,0,0-.09-.09.26.26,0,0,0-.16,0,1.09,1.09,0,0,0-.25.06,2,2,0,0,0-.36.13l-.32.17a1.45,1.45,0,0,0-.21.15.31.31,0,0,0-.09.13.19.19,0,0,0,0,.13l5.14,9.69a.2.2,0,0,0,.09.09.21.21,0,0,0,.16,0,.92.92,0,0,0,.25-.05,1.65,1.65,0,0,0,.36-.14,1.49,1.49,0,0,0,.34-.18,1,1,0,0,0,.2-.14c.05,0,.08-.09.08-.13a.21.21,0,0,0,0-.13Z"/><path class="cls-2" d="M123.4,120.87l-11-3.69a.23.23,0,0,0-.14,0,.31.31,0,0,0-.13.09,1.58,1.58,0,0,0-.14.2,1.75,1.75,0,0,0-.15.33,1.82,1.82,0,0,0-.11.33,1.11,1.11,0,0,0,0,.23.35.35,0,0,0,0,.16.26.26,0,0,0,.11.07l11,3.69a.2.2,0,0,0,.13,0,.22.22,0,0,0,.13-.09.69.69,0,0,0,.14-.2,1.59,1.59,0,0,0,.16-.32,2.68,2.68,0,0,0,.11-.35,1.29,1.29,0,0,0,0-.24.17.17,0,0,0,0-.14A.18.18,0,0,0,123.4,120.87Z"/><path class="cls-2" d="M120.1,125a3.41,3.41,0,0,0-1.25-.85,3,3,0,0,0-1.24-.29,3.14,3.14,0,0,0-1.11.16,5,5,0,0,0-1,.48c-.31.2-.62.42-.91.64l-.86.67a5,5,0,0,1-.85.54,2.55,2.55,0,0,1-.85.27,1.81,1.81,0,0,1-1.44-.5,1.27,1.27,0,0,1-.34-.52,1.57,1.57,0,0,1-.06-.66,2.06,2.06,0,0,1,.25-.79,2.78,2.78,0,0,1,.54-.77,4.49,4.49,0,0,1,.59-.52l.5-.33a.91.91,0,0,0,.26-.22.17.17,0,0,0,0-.12.24.24,0,0,0-.09-.12,1.11,1.11,0,0,0-.18-.12l-.27-.13-.27-.1a.83.83,0,0,0-.18,0,.39.39,0,0,0-.14,0l-.18,0a1.32,1.32,0,0,0-.37.22,4.72,4.72,0,0,0-.52.43,7.26,7.26,0,0,0-.5.57,4.46,4.46,0,0,0-.4.66,4,4,0,0,0-.43,1.31,2.8,2.8,0,0,0,.06,1.23,2.53,2.53,0,0,0,.58,1,3.21,3.21,0,0,0,1.12.76,3.29,3.29,0,0,0,1.26.3A3.68,3.68,0,0,0,113,128a4.72,4.72,0,0,0,1-.47,8.18,8.18,0,0,0,.91-.63l.86-.66a5.31,5.31,0,0,1,.83-.54,2.55,2.55,0,0,1,.85-.27,1.77,1.77,0,0,1,.91.15,1.89,1.89,0,0,1,.7.48,1.47,1.47,0,0,1,.38.65,2,2,0,0,1,0,.78,2.84,2.84,0,0,1-.28.87,4.18,4.18,0,0,1-.67,1,7.29,7.29,0,0,1-.71.62,5.11,5.11,0,0,1-.58.38.72.72,0,0,0-.3.25.17.17,0,0,0,0,.12.22.22,0,0,0,.06.13,1.06,1.06,0,0,0,.18.13l.3.15a1.86,1.86,0,0,0,.45.14.72.72,0,0,0,.33,0,1.58,1.58,0,0,0,.41-.21,4.26,4.26,0,0,0,.57-.46,4.68,4.68,0,0,0,.63-.68,5,5,0,0,0,.57-.9,4.72,4.72,0,0,0,.48-1.46,3.13,3.13,0,0,0-.08-1.37A2.83,2.83,0,0,0,120.1,125Z"/><path class="cls-2" d="M127,103.25a.25.25,0,0,0-.13,0l-4.49-.29-6.63-3.61a1.55,1.55,0,0,0-.32-.14.21.21,0,0,0-.19,0,.45.45,0,0,0-.11.24,3.83,3.83,0,0,0-.06.49,2.43,2.43,0,0,0,0,.37,1.07,1.07,0,0,0,0,.23.34.34,0,0,0,.09.14.48.48,0,0,0,.16.08l3.4,1.79,1,.49c.34.17.68.33,1,.48v0l-1.13.36c-.38.13-.74.24-1.08.37l-3.62,1.33a.48.48,0,0,0-.16.08.24.24,0,0,0-.11.13,1.83,1.83,0,0,0-.07.26,3,3,0,0,0,0,.41,4.21,4.21,0,0,0,0,.46.46.46,0,0,0,.07.24.2.2,0,0,0,.19.06,1.49,1.49,0,0,0,.35-.1l7.11-2.73,4.49.29a.19.19,0,0,0,.13,0,.2.2,0,0,0,.1-.12.81.81,0,0,0,.07-.22,1.68,1.68,0,0,0,.06-.36,2.15,2.15,0,0,0,0-.36,1.19,1.19,0,0,0,0-.24A.18.18,0,0,0,127,103.25Z"/><path class="cls-2" d="M125.5,113.64a.23.23,0,0,0-.12-.06l-10.36-2,.71-3.09a.19.19,0,0,0,0-.13.35.35,0,0,0-.1-.12.56.56,0,0,0-.19-.1l-.3-.07-.31,0a.86.86,0,0,0-.24,0,.45.45,0,0,0-.14.06.34.34,0,0,0-.06.12l-1.77,7.64a.19.19,0,0,0,0,.13.28.28,0,0,0,.1.12,1,1,0,0,0,.21.1,1.6,1.6,0,0,0,.3.08l.31,0,.21,0a.26.26,0,0,0,.14-.06.25.25,0,0,0,.07-.12l.71-3.09L125,115h.14a.23.23,0,0,0,.11-.11,1.12,1.12,0,0,0,.11-.22,2.74,2.74,0,0,0,.11-.34,3.06,3.06,0,0,0,0-.36.87.87,0,0,0,0-.23A.26.26,0,0,0,125.5,113.64Z"/><polygon class="cls-2" points="54.62 15.74 54.67 15.65 54.72 15.55 54.75 15.45 54.78 15.33 54.52 15.86 54.56 15.82 54.62 15.74"/><polygon class="cls-2" points="54.38 15.9 54.47 15.91 54.52 15.86 54.3 15.88 54.3 15.89 54.38 15.9"/><polygon class="cls-2" points="54.83 14.96 54.83 14.91 54.81 15.04 54.82 15.04 54.83 14.96"/><polygon class="cls-2" points="52.35 15.16 52.41 15.19 52.47 15.21 52.31 15.02 52.3 15.03 52.31 15.1 52.35 15.16"/><path class="cls-2" d="M44.18,13.11l0,.05h0l0,0,.08.11h0l.11.08,0,.13h0l0,0,.08.09h0l.05,0,.09.09h0l.06,0h0l.17,0,.08.05h.11l.07,0,.15.09h0l.09,0h.27l.09,0h0L46,14h0l.08,0h0l.09,0h0l.07,0h0l.07,0h0l.06,0h0l0-.05h0l0,0h0l0,0h0l0,0h0v0l0-.39h0l0-.09h0l0-.09h0l0-.08h0l0-.07h0l0-.07h0l-.06-.05h0l-.06,0h0l-.07,0h0l-.06,0h-.19l-.06-.14h0l-.14-.1h0l-.07,0h0l-.07,0h0l-.06,0h-.32l-.09,0h0l-.17,0h0l-.16,0-.09,0h-.17l0,0h0l0,0h0l0,0h0l0,0h0l0,0h0l0,0h0l0,.11h0l0,.13h0v.13h0a.13.13,0,0,0,0,.09h0a.59.59,0,0,1,0,.08S44.17,13.1,44.18,13.11Z"/><path class="cls-2" d="M46.46,15.36h-.09l-.58.24h0l0,0h0v0h0l0,.06,0,.06v0a.44.44,0,0,0-.05.15h0v.25l0,.09h0s0,0,0,.08a.19.19,0,0,0,0,.08l0,.24h0V17h0l0,.11c0,.14.06.28.08.43s0,.1,0,.14a.76.76,0,0,0,0,.15v.41l0,.06h0c0,.07,0,.14,0,.21a1,1,0,0,1,0,.29h0l.08.29c.18.63.37,1.26.58,1.89h0l.21.59h0l.41,1h0l.22.47h0c.13.21.24.44.36.66l.06.1h0l.35.56h0l0,.06.05.06h0l.11.11h0l.05,0h0l.06,0,.06,0h0l.07,0h0l.07,0h0l.08,0h0l.07,0h.36l.17,0h0v0l.27-.41h0l.09-.17.08-.17h0l0-.76,0-.75V22.4h0v0l-.12-.23h0l-.16-.22h0l-.08-.09,0,0h0l0,0,0,0-.15.12-.1.1-.18,0-.1,0-.09,0-.08-.05-.08,0-.08-.07-.06-.07-.07-.07L48,21.49l-.06-.09-.1-.18-.1-.18-.11-.31-.09-.3-.07-.31-.06-.71h0l0-.18c-.1-.48-.2-1-.3-1.47,0-.15-.06-.34-.1-.53l0-.24,0-.08,0-.06h0l0-.2h0l0-.2h0l0-.06V16.2h0l0-.05a2.34,2.34,0,0,0-.19-.45c0-.07-.07-.13-.1-.21v0h0l-.13,0-.08,0Z"/><path class="cls-2" d="M47.91,13l.06.26h0l.05.16h0l.09.23h0l.07.14h0l0,.06,0,.06h0l0,0h0l0,0h0l0,0h0l0,0h0l.05,0h0l.11,0h0l.14,0h0l.16,0h.34l.88-.68h0l0,0,0,0,.05,0,.08,0h.17l.1,0,.14.09-.2,2.7c0,.07,0,.16,0,.24h0l0,.24h0c0,.1,0,.2,0,.3v.32c0,.21,0,.42,0,.63a4.34,4.34,0,0,1-.08.63l0,.12a.88.88,0,0,1,0,.15,1.21,1.21,0,0,1-.05.14h0l-.06.14-.06.12-.08.12-.06.08-.07.09a.23.23,0,0,0-.07.07l-.08.07-.11.08-.11.09h0l-.11.11-.44.4h0v0a.52.52,0,0,0,.08.3.61.61,0,0,0,.23.22l0,0h0l.06,0h0l.06,0h.23l.08,0h0l.1,0,.13,0h.33l.13,0,.1,0,.08,0,.08.05.07.07.33.68.32.69h0l.07.13s0,.07.06.1l.07.09h0l.1.11h0L52,23h0l.13.09h0l.16.09h0l.17.08h0l.08,0h.28l.2,0h0l.17,0,.16,0,.54-.14.41-.1h.61l.32.27.35.28h0a.61.61,0,0,0,.19,0L56,23.5h0l.11-.06h0l.12-.07h0l.13-.1h0l.11-.1h0c.12-.38.24-.78.36-1.18l.18-.55.11-.37c.09-.28.17-.56.26-.84,0,0,0,0,0-.07s0,0,0-.07h0V20h0s0-.05,0-.07a.14.14,0,0,0,0-.06h0l0-.07,0-.06h0a.18.18,0,0,0-.05-.07.21.21,0,0,0,0-.06h0l0,0h0l-.07-.05-.58-.41c0-.34-.09-.68-.14-1l-.15-1,.1-.43.1-.41,1.67-.62.61-.22h0l.5-.36h0l.09-.32h0v0l-.24-.42h0l0,0h0l0-.05h0l-.06,0h0l-.07,0h0l-.08,0h0l-.09,0h0l-.17,0h0l-.56.17-.21.06h0l-1,.4h0l-.47.26-.42-.22-.36-1.08L55.28,13h0l-.07-.11h0l-.08-.1h0l-.09-.1h0L55,12.62l-.09-.06-.09-.06-.08-.05h0l-.09,0-.1-.05h0l-.08,0-.07-.06h0l-.05,0h0l0,0h0l-.05,0h0l-.06,0h-.37l-.08,0h0l-.09,0h0l-.09,0h0l-.1,0h0l-.1.06h0l-.13.07-.51-.11.51-1.72h0l0-.33h0V10h0s0-.09,0-.13V9.75h0l0-.19h0a.83.83,0,0,0,0-.15l0-.14h0L53,9.2h0l-.07-.06h0l-.08,0h0L52.76,9h0l-.09,0h0l-.09,0h-.21l-.11,0-.11,0h0l-.08,0-.08,0-.07.05-.07.05h0l-.07.06-.07.06h0l-.06.06,0,.07h0l-1.12,1.62-.59.6-.11,0h-.25l-.07,0-.06,0,0,0-.05-.08.34-1.67h0a3.49,3.49,0,0,0,0-.56,4.85,4.85,0,0,0-.09-.55l-.09-.4c0-.14-.07-.27-.1-.4l0-.12h0l-.14-.09-.07-.05h0l-.17,0-.16,0h0l-.12.07-.12.07L48.36,8h0l-.25.58h0l-.23,1.58h0c0,.68,0,1.36,0,2v.3h0l.06.45ZM55,17.06l.06,0,.05.07,0,.07,0,.08,0,.08,0,.08v.09h0c0,.14.07.28.1.41s.07.28.11.41a1.1,1.1,0,0,0,0,.18v0h0l.16.38v0a.09.09,0,0,0,0,.05h0v.06h0l.05.12v.08h0l0,.16a.68.68,0,0,1,0,.14v.16l0,.09-.09.11h0l0,.06h0l0,.05h0v.06h0v.06h0c0,.05,0,.1,0,.15v.17h0a.15.15,0,0,0,0,.07h0a.19.19,0,0,1,0,.07v0h0v0l0,.06,0,.05,0,0,0,0-.05,0-.1.06-.08,0-.08,0-.12,0-.28.09-.18.08-.72.23-.1,0h0l-.09,0-.09,0h-.17l-.07,0-.07,0-.05-.05,0-.05,0-.07-.08-.14a9.36,9.36,0,0,1-.43-1.17,10.9,10.9,0,0,1-.28-1.16l0-.08,0-.06,0-.06.05,0,.06-.05.07,0,.07,0,.08,0,.07,0h.08l.09,0h.34s0,0,0,0,0,.06,0,.1a2.32,2.32,0,0,0,.14.37l.28.64h0l.06.07.07.08,0,.08v0h0l0,0h0l.19.07.2.08h0l0,0h0l.09-.1.3-.13h0l0-.05,0,0h0a2.17,2.17,0,0,1,.07-.24v-.05h0a0,0,0,0,1,0,0v0h0l-.06-.07h-.09l-.19-.1-.08,0,0,0A1.83,1.83,0,0,1,53.73,18l0-.11,0-.13a.19.19,0,0,1,0-.08l0-.08,0,0,0-.05,0,0,.05,0,0,0,.06,0,.09-.05.09,0h0l0-.05s0,0,.05,0l.06,0h.23l.1,0H55ZM52.29,15l0-.06.06-.06.14-.14.08,0,0,0,.17-.19.07-.06.07-.07.06,0,.19-.17.33-.24.08-.07,0,0,.07,0,0,0h.12l.12,0,.1.05.09.07.19.15.11.1,0,0,0,.1c0,.08.09.16.14.24l.1.2,0,.08,0,.07V15l0,.09v.28l0,.12,0,.12,0,.1-.06.09-.06.08-.1.1h-.12l-.08,0-.07,0-.08,0L54,15.76l-.42-.29-.06,0-.05,0h-.08L53,15.34l-.46-.07-.08,0h0l-.07,0-.06,0-.06-.06V15Zm-.58,1.84,0-.09s0,0,0,0h0a0,0,0,0,1,0,0h0a.43.43,0,0,1,0-.05h0s0,0,0,0l0,0,.09,0,.17,0h.15l.15,0h.07l.07,0h.22l.11.16,0,.12,0,.12,0,.11,0,.1L52.8,17l-.08.08a.33.33,0,0,0-.11.22c0,.06,0,.1-.18.11h0l-.26,0h0L52,17.38l-.08-.09,0,0-.05-.1c0-.1-.06-.21-.1-.31v0Z"/><path class="cls-2" d="M73.05,22.24l.07.05h0c.09.05.18.08.27.12h0l.15,0h.33l.42,0,.38,0h0l.1,0h.06a.32.32,0,0,1,.09,0H75l.13-.06h0l0,0h0l.08-.08a1.14,1.14,0,0,0,.11-.11l.08-.07.08,0,.11-.05h.1l0,0h0l.08,0h0l0,0,0,0h0l0,0h0l.06-.07.07-.06.92-.79.07-.06c.12-.1.23-.19.34-.3h0l.06-.07.83-.95.09-.09.08-.09h0l0,0,0-.07,0-.07,0,0a.69.69,0,0,0,.11-.13h0l0,0h0l0-.12h.26l.17,0,.14.05.12.07.09.09.07.11,0,.12,0,.13,0,.13c0,.13,0,.25,0,.38L80,20l0,.15,0,.16h0l0,.14h0l0,.09.07.27c.06.26.13.52.19.78s.13.57.2.85l.06.22.06.22.14.43.11.27h0l.12.25h0l.07.12h0l.06.11h0l.07.11h0l.08.09h0l.08.09h0l.08.08h0l.08.07h0l.08.07h0l.21.15h0l.21.16,0,0h0l.17.15.18.15.2.14.21.14h0l.22.13.23.12h0l.45.19h0l.27.1h0l0,0h.11l0,0h0l.09,0a.25.25,0,0,1,.09,0h0l0,0h0l.46-.5a.13.13,0,0,1,.07,0l.06,0,0,0-.05-.05h0l-.07,0-.08-.06-.1-.07-.3-.26-.22-.2-.16-.18c-.06,0-.11-.11-.17-.17l-.23-.26-.22-.25-.21-.26-.21-.26c-.12-.15-.23-.31-.34-.47a3.66,3.66,0,0,1-.31-.49v0a.52.52,0,0,1-.07-.21h0l0-.08v0h0l0-.06-.11-.31h0a.6.6,0,0,0-.08-.08l0,0v0h0l0-.06a.54.54,0,0,1-.09-.15l0,0c0-.13-.07-.25-.1-.37s-.07-.24-.1-.38,0,0,0,0v0h0a.64.64,0,0,1-.08-.14l0,0h0l-.07-.11,0-.06,0-.07c0-.15-.06-.3-.08-.46v-.05h0a2.27,2.27,0,0,0-.09-.28c-.13-.38-.3-.75-.46-1.12l-.1-.23v0a1,1,0,0,0,0-.17h0a.28.28,0,0,0,0-.09h0l0-.16.3-.9a1.09,1.09,0,0,1,.13-.17h0l0-.09,0-.1.07-.07L81.4,16l.09,0,.09,0,.09,0h.19l.2,0,.25.05.22,0,.06,0h0l.25,0,.25,0,0,0h0a1.08,1.08,0,0,1,.18,0h.3l.18-.05h0l.3-.09.28-.11h0l0,0,.25-.08h0l.09-.09h0l.16-.3,0,0h0l0-.1h0v-.11h0V15h0l0-.11h0l0-.11h0l-.06-.11h0l-.07-.11h0l-.08-.1h0l-.1-.09h0l-.1-.08h0l-.11-.07h0l-.11-.06h0l-.11,0h0l-.12,0h-.25L83.51,14h-.22l-.12,0h0L83,14h0l-.11,0-.08-.08-.09-.1,0-.06,0-.07v-.2a2.5,2.5,0,0,1,.09-.25c0-.11.09-.21.13-.31l.14-.3h0l.07-.2c0-.11.09-.21.14-.32a2.3,2.3,0,0,1,.15-.32h0l.15-.46h0c.06-.22.12-.43.17-.64l.18-.63,0-.09A2.5,2.5,0,0,1,84,9.63h0a2.45,2.45,0,0,1,0-.27v0h0v0h0l0-.06h0l0-.05,0,0,0-.07h0a754500788376,754500788376,0,0,0-.08-.18h0a5,5,0,0,0-.31-.49l-.08-.11,0-.07h-.54l-.12,0h0l-.1,0h0l-.09,0h0l-.09,0h0l-.07,0h0l-.07.07h0l-.06.08h0l-.06.09h0l-.06.1h0L82,8.74h0l0,.14h0L82,9V9h0l0,0s0,.06,0,.08,0,.07,0,.1h0l0,.07h0v.15h0l0,0,.06.08,0,.1,0,.1v.52l0,.16,0,.16,0,.16-.1.35-.09.26c0,.09-.06.17-.09.27s-.09.24-.13.35-.09.23-.14.35l-.18.44c-.07.15-.13.3-.19.44l0,.1c-.06.13-.11.26-.16.39l-.13.05-.44.14L80,14l-.18,0h-.18l-.07,0L79.11,14h0L79,14H78.6l-.18,0h0l-.19,0h0l-.22.07h0l-.29.11-.09,0h0l-.2,0h-.14l-.14-.05h0l-.14,0h0a1.17,1.17,0,0,0-.27,0h0l-.19,0h0l-.08,0h-.28l-.15,0h0l-.12.06h0l-.1.09h0l-.08.09h0l-.07.1h0l0,.11h0l0,.13h0l0,.13h0V15h0v.14h0l0,.13h0l0,.14h0l.06.13h0l.07.11h0l0,.07,0,.06,0,0,.16.11h0l.14.08h0l.13.06h0l.13,0h0l.14,0h.15l.15,0h0L77,16h0l.1,0h.48l.19,0h0a1.84,1.84,0,0,0,.33,0h0l.24,0,.1,0h.11l.15,0H79l.23-.06.13.26,0,.09h0v.1s0,.07,0,.11v.13l0,.1,0,0h0a1.71,1.71,0,0,0-.11.14h0l-.15.18-.17.18c-.1.12-.21.24-.32.35s-.36.39-.53.59h0l0,.09-.1,0h0l0,0h0l0,0h0l0,0h0l-.07.07-.07.07h0l-.15.18-.07.09-.1.11-.1.09h0a.86.86,0,0,1-.13.14v0l-.33.31-.33.3,0,0c-.22.2-.45.4-.69.59l-.08,0h0a.16.16,0,0,0-.09.05h0l-.09.12v0l-.09,0h0l0,0h0l-.13.07,0,0-.58.35a5.65,5.65,0,0,0-.57.38h0l-.09.07h0l-.06.07h0v.06l-.08,0h0l0,0-.3.17h0l-.14.1,0,0,0,0Z"/><path class="cls-2" d="M100.25,26.45l0,.09h0l0,.1a.94.94,0,0,1,0,.09l0,.07,0,.07h0l.08.11h0l0,0,0,0h.14l.13,0h0l.12,0h0l.11,0h0l.1,0,.1,0,.35-.17.14-.07.24-.1.14-.05.15-.06.18-.05h.66l.2,0h0l.5.66h0l.1,0,.24.2.25.22h0l.18.12.17.13h0l.28.13h0l.34.09h.15l0,0,.08,0,.07.05h0l.11,0,0,.06h0l0,0h0l0,0h0l0,0h0l.14,0h0l.14,0,.14,0,.12,0,.06,0,.07,0,0,0v0h0l.09,0h0l.23.22h0l.09,0h0l.27.18.28.19h0l.13.05.13.05.19.1.18.11.18.12.16.13.16.15.09.1.09.11h0l.13.07,0,.05h0a2.38,2.38,0,0,0,.4.31l.05,0h0l.26.18h0l.13,0,0,.11,0,.08v.09l0,.08,0,.08-.06.16-.08.2-.07.05c-.12.07-.25.12-.38.18l-.16.07h0a1.71,1.71,0,0,0-.23.13h0v0a.75.75,0,0,0,.18.31,3.11,3.11,0,0,0,.28.23l.54.32.27.15.14.08.13.09h.09l.1,0,.1,0h0l.14-.07h0l.1-.06.1-.07h0l.09-.07.08-.08h0l.09-.1h0l0-.07a.43.43,0,0,0,0-.07h0a.78.78,0,0,0,0-.16h0a2,2,0,0,0,0-.24v-.05l0-.12h0v-.09h0v-.08h0v-.09h0l0-.08h0l0-.09h0l0-.09,0-.09h0l-.09-.18-.09-.18c-.07-.13-.14-.26-.2-.39h0l-.32-.43h0l-.19-.2-.2-.19,0-.06h0l-.09-.09-.38-.39h0a.63.63,0,0,0-.12-.11l-.12-.11h0l-.11-.08h0l-.12-.08-.15-.1-.16-.08-.45-.21,0,0-.12-.12-.28-.27h0l-.12-.09h0l-.06,0h0l-.06,0h0l-.06,0h0l-.06,0h-.23l-.13,0-.14-.11-.15-.12-.28-.23h0l-.13-.09h0l-.06,0h0l-.06,0h0l-.06,0h-.57l-.55-.63,0,0h-.44l-.1,0-.1,0-.08,0-.08,0-.08,0-.07-.06a3.36,3.36,0,0,1-.29-.24l0,0h0l-.28-.23.29-.22h0l0-.07h0l0-.08h0l0-.07h0l0-.07h0v-.07h0v-.11h0s0-.07,0-.11v0h0l-.09-.08-.1-.09,0,0-.06-.05h0l0,0h0l-.26-.05h-.06l-.35.06-.35.07h0l-.15.11,0,0-.07,0-.14,0-.13,0h0a.8.8,0,0,1-.15,0h0l-.13.1-.06,0H102l-.18,0h0l-.17,0-.17,0-.32.11-.32.1h0l0,0-.11.07-.24.17h0l-.09.08h0l0,0h0l0,.05h0l0,.06h0l0,.06h0l0,.07h0v.08h0v.07h0C100.22,26.33,100.23,26.39,100.25,26.45Z"/><path class="cls-2" d="M109.65,26.66a.28.28,0,0,0,0,.09s0,.06,0,.1l0,.1,0,.09s0,.08,0,.11a1,1,0,0,1,0,.1h0a.91.91,0,0,0,.07.14l.07.13h0l.14.21a1.43,1.43,0,0,0,.14.2h0l.15.09.16.08.07,0a2.24,2.24,0,0,1,.4.22h0l.07,0,.09.05c.12.06.24.13.37.18H112l.1,0,.11,0,.23.07h.09l.09,0h.23l.07,0h.11l.12.05h0l.11,0h0l.1,0h.22l.1,0h0l.1,0h0l.1,0h0l.1,0h0l.15-.08.15-.09h0l.14-.08.27-.17h0l.13-.13h0l.1-.12h0l.07-.12h0l.05-.11h0l0-.1h0v-.09h0v-.09h0l0-.08h0l-.05-.09h0l-.06-.08h0l-.07-.08h0l-.09-.08h0l-.1-.08-.11-.08h0l-.21-.13h-.19a2.24,2.24,0,0,0-.37.1l-.05,0-.34.1h-.06l-.13.06h0l-.09,0-.09,0H113l-.23-.05h0a.71.71,0,0,0-.21,0h0l0,0-.08,0-.08,0-.08,0-.09,0h-.22l-.17.05h0l-.16-.15-.28-.27a2.53,2.53,0,0,1-.13-.22v0l0-.16.11-.09h.12l.07,0h0l.05,0h.22l.06,0h0l.06,0h0l.06,0h0l.15-.14.08-.07.1-.07v0a.4.4,0,0,0,.12-.1h0l0,0h0a1.7,1.7,0,0,0,0-.22V25.5h0l-.09-.32v-.1l0,0A.8.8,0,0,0,112,25h-.27l-.16,0h0l-.14,0h0l-.14,0h0l0,0H111l-.64.2h0l-.15.12-.14.12h0l0,.06,0,.06h0l-.09.1-.07.11h0a.56.56,0,0,0-.09.17.75.75,0,0,0-.07.18h0l0,.12h0v.09a.31.31,0,0,0,0,.1h0v.18Z"/><path class="cls-2" d="M105.87,25.9h0l.06.14a.61.61,0,0,1,.07.14h0l.07,0h0l.1.05h0l.09,0h0l.09,0h.31l.07,0h0l.08,0h0l.36-.15.22-.11h0l0-.07.08-.08.09-.07.18-.15.41-.3h0l.13-.11h0l.05-.06h0l0-.05h0l0-.05h0l0-.09.1-.07h0v-.06h0l0-.09,0-.09,0-.07a1.09,1.09,0,0,0,.08-.15h0l.05-.09,0-.1,0-.08s0-.05,0-.08h0a.17.17,0,0,1,0-.07v-.09s0-.05,0-.08,0-.06,0-.09h0l0-.12a.76.76,0,0,0,0-.11l0-.07,0-.08h0l-.07-.06h0l0,0h-.08l0,0h0l-.14.08-.11.05h0l-.06,0h0l-.2.15-.24.13h0l-.24.14h0l-1.21.9h0l-.05.12-.27.28h0l0,.06h0l-.06.11a.37.37,0,0,0,0,.11h0v.1h0l-.07,0h0a0,0,0,0,0,0,0h0a1.6,1.6,0,0,1,0,.21Z"/><path class="cls-2" d="M22.18,26.55c.08.15.17.3.26.45h0l.07.12.28.41c.09.14.19.27.29.41.24.34.49.67.74,1l.19.24,1.86,2.49c.43.59.87,1.17,1.35,1.82l.38.5.36.49.21.32.2.33.13.6L28,36.84l-.93,1.37-.33.34h0l-.45.55h0l-.09.13h0l-.2.36h0l-.1.21h0l-.12.3h0l-.05.22h0l0,.22h0v.06H27l.13,0h0l.07,0h0l.16-.09h0l.15-.12h0l.14-.14h0L27.8,40h0l.13-.19h0l.14-.21h0l.07-.12,1-1.63.55-.76.54-.64.6-.75.61-.63,1.33-1.24,1.18-1,.47-.29.11,0,.25-.13.13-.06.63-.19h0l.26-.11h0l0,0,0,0h0l.32-.23h0l.09-.08.08-.09h0l.21-.25h0l0-.19h0V31h0v-.1h0v-.1l0-.09h0l0-.08h0l0-.07h0l0-.06h0l0-.06h0l0-.05h0l-.05-.05h0l-.06,0h0l-.23-.12h0l-.1,0-.09,0H35.5l-.12,0h0l-.34.11h0l-.28.14h0l-.29.17h0l-.27.19-.25.19-1.15.89-.88.69-.57.44-.55.43-.16.06-.14.06-.14,0-.14,0h-.27l-.15,0-.12-.08-.19-.24L29.29,33c-.13-.17-.26-.33-.38-.5s-.37-.5-.57-.75h0l-.2-.24-.07-.1L28,31.32l-.05-.1,0-.11,0-.1,0-.11v-.34l0-.11,0-.12.05-.12L28,30.1l.07-.12.07-.12.11-.15.26-.21.12-.1.12-.11h0l.16-.18h0l.15-.2h0l.07-.11h0l.07-.12.07-.13h0l.06-.14h0l.06-.15h0l.05-.16.05-.17h0v-.14a.17.17,0,0,1,0-.07l0-.09s0,0,0,0l0,0h0l-.06-.08h0l-.09-.09h0l-.05,0h-.1l-.08,0h0l-.08,0h0l-.08,0h0l-.07,0-.36.13h0l-.07.07-.07.07-.24.23L28,28h0c-.12.19-.23.41-.34.63s-.23.44-.35.63l-.12.11-.11.08L27,29.5l-.16,0h-.18l-.17-.07-.16-.11-.16-.17L25,27h0l-.19-.31h0l-.2-.28h0l-.1-.12-.1-.12L24.3,26h0l-.1-.09h0l-.1-.09h0l-.1-.07h0l-.11-.07h0l-.1-.06h0l-.1-.05h0l-.1,0h0l-.21-.05-.49,0h-.06l-.41.12h0l-.21.16h0l-.1.11h0L22,26,22,26v0h0A2.38,2.38,0,0,0,22.18,26.55Z"/></g></g></svg>